<svg width="22" height="16" viewBox="0 0 22 16" fill="none" xmlns="http://www.w3.org/2000/svg">
<path opacity="0.4" d="M7.14306 11.9263C6.71715 12.3523 6.01805 12.3582 5.66705 11.8687C4.90105 10.8005 4.4525 9.48879 4.4525 8.07C4.4525 6.65127 4.90101 5.33964 5.66695 4.27145C6.018 3.78188 6.71721 3.7878 7.14318 4.21378C7.57264 4.64323 7.55525 5.33603 7.24385 5.85746C6.85659 6.50594 6.6348 7.26333 6.6348 8.07C6.6348 8.88251 6.85981 9.64502 7.2489 10.3C7.55604 10.817 7.56828 11.5011 7.14306 11.9263ZM14.8557 11.9263C15.2817 12.3523 15.9808 12.3582 16.3318 11.8687C17.0978 10.8005 17.5463 9.48879 17.5463 8.07C17.5463 6.65127 17.0978 5.33964 16.3319 4.27145C15.9808 3.78188 15.2816 3.7878 14.8556 4.21378C14.4262 4.64323 14.4436 5.33603 14.755 5.85746C15.1422 6.50594 15.364 7.26333 15.364 8.07C15.364 8.88251 15.139 9.64502 14.7499 10.3C14.4428 10.817 14.4305 11.5011 14.8557 11.9263ZM10.9994 5.8877C9.79914 5.8877 8.8171 6.86973 8.8171 8.07C8.8171 9.27027 9.79914 10.2523 10.9994 10.2523C12.1997 10.2523 13.1817 9.27027 13.1817 8.07C13.1817 6.86973 12.1997 5.8877 10.9994 5.8877ZM19.7286 8.07C19.7286 10.0861 19.0422 11.9421 17.8924 13.4147C17.5198 13.892 17.5123 14.5829 17.9405 15.0111C18.3676 15.4382 19.0649 15.4413 19.4475 14.9739C20.987 13.0927 21.9109 10.6886 21.9109 8.07C21.9109 5.45141 20.987 3.0473 19.4475 1.16613C19.0649 0.698668 18.3676 0.701813 17.9405 1.12894C17.5123 1.55711 17.5198 2.24803 17.8924 2.72532C19.0422 4.19791 19.7286 6.05387 19.7286 8.07ZM4.10636 2.72532C4.47899 2.24803 4.48651 1.55711 4.05834 1.12894C3.63122 0.701813 2.93387 0.698668 2.55131 1.16613C1.01185 3.0473 0.0878906 5.45141 0.0878906 8.07C0.0878906 10.6886 1.01185 13.0927 2.55131 14.9739C2.93387 15.4413 3.63122 15.4382 4.05834 15.0111C4.48651 14.5829 4.47899 13.892 4.10636 13.4147C2.95665 11.9421 2.27019 10.0861 2.27019 8.07C2.27019 6.05387 2.95665 4.19791 4.10636 2.72532Z" fill="white"/>
</svg>
