<svg width="23" height="16" viewBox="0 0 23 16" fill="none" xmlns="http://www.w3.org/2000/svg">
<path d="M7.64306 11.9263C7.21715 12.3523 6.51805 12.3582 6.16705 11.8687C5.40105 10.8005 4.9525 9.48879 4.9525 8.07C4.9525 6.65127 5.40101 5.33964 6.16695 4.27145C6.518 3.78188 7.21721 3.7878 7.64318 4.21378C8.07264 4.64323 8.05525 5.33603 7.74385 5.85746C7.35659 6.50594 7.1348 7.26333 7.1348 8.07C7.1348 8.88251 7.35981 9.64502 7.7489 10.3C8.05604 10.817 8.06828 11.5011 7.64306 11.9263ZM15.3557 11.9263C15.7817 12.3523 16.4808 12.3582 16.8318 11.8687C17.5978 10.8005 18.0463 9.48879 18.0463 8.07C18.0463 6.65127 17.5978 5.33964 16.8319 4.27145C16.4808 3.78188 15.7816 3.7878 15.3556 4.21378C14.9262 4.64323 14.9436 5.33603 15.255 5.85746C15.6422 6.50594 15.864 7.26333 15.864 8.07C15.864 8.88251 15.639 9.64502 15.2499 10.3C14.9428 10.817 14.9305 11.5011 15.3557 11.9263ZM11.4994 5.8877C10.2991 5.8877 9.3171 6.86973 9.3171 8.07C9.3171 9.27027 10.2991 10.2523 11.4994 10.2523C12.6997 10.2523 13.6817 9.27027 13.6817 8.07C13.6817 6.86973 12.6997 5.8877 11.4994 5.8877ZM20.2286 8.07C20.2286 10.0861 19.5422 11.9421 18.3924 13.4147C18.0198 13.892 18.0123 14.5829 18.4405 15.0111C18.8676 15.4382 19.5649 15.4413 19.9475 14.9739C21.487 13.0927 22.4109 10.6886 22.4109 8.07C22.4109 5.45141 21.487 3.0473 19.9475 1.16613C19.5649 0.698668 18.8676 0.701813 18.4405 1.12894C18.0123 1.55711 18.0198 2.24803 18.3924 2.72532C19.5422 4.19791 20.2286 6.05387 20.2286 8.07ZM4.60636 2.72532C4.97899 2.24803 4.98651 1.55711 4.55834 1.12894C4.13122 0.701813 3.43387 0.698668 3.05131 1.16613C1.51185 3.0473 0.587891 5.45141 0.587891 8.07C0.587891 10.6886 1.51185 13.0927 3.05131 14.9739C3.43387 15.4413 4.13122 15.4382 4.55834 15.0111C4.98651 14.5829 4.97899 13.892 4.60636 13.4147C3.45665 11.9421 2.77019 10.0861 2.77019 8.07C2.77019 6.05387 3.45665 4.19791 4.60636 2.72532Z" fill="white"/>
</svg>
