<svg width="21" height="18" viewBox="0 0 21 18" fill="none" xmlns="http://www.w3.org/2000/svg">
<path d="M18.7891 17.3255H2.78906C1.68449 17.3255 0.789062 16.4301 0.789062 15.3255V2.18595C0.835671 1.1155 1.7176 0.271937 2.78906 0.27295H18.7891C19.8936 0.27295 20.7891 1.16838 20.7891 2.27295V15.3255C20.7891 16.4301 19.8936 17.3255 18.7891 17.3255ZM2.78906 4.14095V15.3255H18.7891V4.14095L12.4529 8.36402C11.4453 9.03556 10.1328 9.03556 9.12525 8.36402L2.78906 4.14095ZM3.58906 2.27295L9.12496 5.96355C10.1327 6.63535 11.4455 6.63535 12.4532 5.96355L17.9891 2.27295H3.58906Z" fill="white"/>
</svg>
