<svg width="21" height="18" viewBox="0 0 21 18" fill="none" xmlns="http://www.w3.org/2000/svg">
<path opacity="0.4" d="M18.2891 17.3255H2.28906C1.18449 17.3255 0.289062 16.4301 0.289062 15.3255V2.18595C0.335671 1.1155 1.2176 0.271937 2.28906 0.27295H18.2891C19.3936 0.27295 20.2891 1.16838 20.2891 2.27295V15.3255C20.2891 16.4301 19.3936 17.3255 18.2891 17.3255ZM2.28906 4.14095V15.3255H18.2891V4.14095L11.9529 8.36402C10.9453 9.03556 9.63282 9.03556 8.62525 8.36402L2.28906 4.14095ZM3.08906 2.27295L8.62496 5.96355C9.63266 6.63535 10.9455 6.63535 11.9532 5.96355L17.4891 2.27295H3.08906Z" fill="white"/>
</svg>
