<svg width="19" height="22" viewBox="0 0 19 22" fill="none" xmlns="http://www.w3.org/2000/svg">
<path opacity="0.4" d="M9.4335 21.1082C8.32893 21.1082 7.4335 20.2128 7.4335 19.1082H11.4335C11.4335 20.2128 10.5381 21.1082 9.4335 21.1082ZM18.148 16.8721C18.148 17.5548 17.5946 18.1082 16.912 18.1082H2.09544C1.41278 18.1082 0.859375 17.5548 0.859375 16.8721C0.859375 16.4039 1.1239 15.9759 1.54266 15.7666L2.85938 15.1082V8.99023C2.85938 5.52823 4.8545 3.28323 7.4335 2.67023V2.49023C7.4335 1.38566 8.32893 0.490234 9.4335 0.490234C10.5381 0.490234 11.4335 1.38566 11.4335 2.49023V2.67023C14.0125 3.28223 16.148 5.52623 16.148 8.99023V15.1082L17.4647 15.7666C17.8835 15.9759 18.148 16.4039 18.148 16.8721ZM9.4335 4.24023C8.21317 4.16144 6.46216 4.70751 5.73438 5.69023C5.11192 6.67479 4.80651 7.82662 4.85938 8.99023V16.1082H14.148V8.99023C14.2008 7.82662 13.8954 6.67482 13.273 5.69023C12.5452 4.70751 10.6538 4.16144 9.4335 4.24023Z" fill="white"/>
</svg>
