<svg width="18" height="22" viewBox="0 0 18 22" fill="none" xmlns="http://www.w3.org/2000/svg">
<path d="M8.9335 21.1082C7.82893 21.1082 6.9335 20.2128 6.9335 19.1082H10.9335C10.9335 20.2128 10.0381 21.1082 8.9335 21.1082ZM17.648 16.8721C17.648 17.5548 17.0946 18.1082 16.412 18.1082H1.59544C0.912783 18.1082 0.359375 17.5548 0.359375 16.8721C0.359375 16.4039 0.623896 15.9759 1.04266 15.7666L2.35938 15.1082V8.99023C2.35938 5.52823 4.3545 3.28323 6.9335 2.67023V2.49023C6.9335 1.38566 7.82893 0.490234 8.9335 0.490234C10.0381 0.490234 10.9335 1.38566 10.9335 2.49023V2.67023C13.5125 3.28223 15.648 5.52623 15.648 8.99023V15.1082L16.9647 15.7666C17.3835 15.9759 17.648 16.4039 17.648 16.8721ZM8.9335 4.24023C7.71317 4.16144 5.96216 4.70751 5.23438 5.69023C4.61192 6.67479 4.30651 7.82662 4.35938 8.99023V16.1082H13.648V8.99023C13.7008 7.82662 13.3954 6.67482 12.773 5.69023C12.0452 4.70751 10.1538 4.16144 8.9335 4.24023Z" fill="white"/>
</svg>
