<svg width="30" height="17" viewBox="0 0 30 17" fill="none" xmlns="http://www.w3.org/2000/svg">
<path opacity="0.4" fill-rule="evenodd" clip-rule="evenodd" d="M14.0821 0.37854C10.8017 0.934819 9.52986 5.0465 11.9104 7.39896C14.0933 9.55594 17.8552 8.48445 18.6261 5.48616C19.3483 2.67734 16.8809 -0.0960948 14.0821 0.37854ZM5.57117 2.48054C2.83811 3.39733 2.51853 7.09808 5.06599 8.32961C7.69212 9.59915 10.4613 6.83216 9.21821 4.18061C8.58027 2.81972 6.89784 2.03547 5.57117 2.48054ZM22.064 2.51772C19.8535 3.25481 19.2055 6.06121 20.8585 7.7385C22.3622 9.26427 24.902 8.79704 25.8323 6.82351C26.9732 4.40359 24.5866 1.67662 22.064 2.51772ZM15.6392 2.54992C17.5507 3.51754 16.9903 6.41001 14.8645 6.54824C14.2005 6.59138 13.7794 6.44471 13.3041 6.0047C11.5264 4.35885 13.4858 1.45987 15.6392 2.54992ZM7.01159 4.14467C7.99469 4.60836 8.20797 5.76309 7.4556 6.54859C6.1106 7.95275 4.03709 5.93019 5.3464 4.49126C5.80168 3.99086 6.41494 3.86324 7.01159 4.14467ZM23.6708 4.15983C24.6436 4.6578 24.7929 5.93054 23.9651 6.66686C23.0893 7.44578 21.662 6.83542 21.548 5.63318C21.4408 4.50317 22.6721 3.64857 23.6708 4.15983ZM4.42852 9.44895C1.79685 10.0111 0.370435 11.2271 0.288607 12.9782C0.207122 14.7206 0.507908 14.9212 3.20166 14.9212C5.43103 14.9212 5.24263 15.0031 5.27223 14.0209C5.30169 13.0413 5.44156 13.1207 3.6851 13.1207C2.04616 13.1207 2.05224 13.1223 2.15136 12.7224C2.34298 11.9491 3.98828 11.2086 5.68513 11.1321L6.55098 11.093L7.1207 10.6792C7.434 10.4515 7.85086 10.185 8.04698 10.0869C8.49276 9.86403 8.54451 9.74887 8.25364 9.62713C7.50427 9.31343 5.49994 9.22008 4.42852 9.44895ZM22.0461 9.41364C20.7844 9.64874 20.7408 9.7272 21.5947 10.2243C21.9104 10.4081 22.3094 10.6753 22.4814 10.8181L22.794 11.0778L23.6847 11.1212C25.3878 11.2041 26.8734 11.8254 27.24 12.608C27.4579 13.0731 27.4328 13.0814 25.696 13.1207L24.1652 13.1553L24.1458 13.9418C24.1194 15.0137 23.9229 14.9212 26.2271 14.9212C28.9263 14.9212 29.1549 14.783 29.1554 13.1517C29.1561 10.6008 25.6285 8.74607 22.0461 9.41364ZM13.501 9.8774C10.2131 10.2534 7.32551 11.6603 6.77329 13.1555C6.59617 13.6351 6.56021 15.7937 6.72284 16.1872C6.86858 16.5398 7.32277 16.9122 7.66792 16.9621C7.83062 16.9856 11.1038 16.9957 14.9416 16.9845L21.9194 16.964L22.2036 16.7735C23.0097 16.233 23.1115 13.739 22.372 12.6449C21.1862 10.8905 16.7484 9.50601 13.501 9.8774ZM16.9029 12.0089C18.3926 12.3337 20.0456 13.0168 20.5737 13.5257L20.8498 13.7917V14.3426C20.8498 15.1363 21.507 15.0597 14.6973 15.0597C7.93692 15.0597 8.54485 15.123 8.54485 14.4191C8.54485 13.8132 8.64671 13.6191 9.13809 13.2886C10.9524 12.0687 14.498 11.4843 16.9029 12.0089Z" fill="white"/>
</svg>
