<svg width="30" height="17" viewBox="0 0 30 17" fill="none" xmlns="http://www.w3.org/2000/svg">
<path fill-rule="evenodd" clip-rule="evenodd" d="M14.5821 0.37854C11.3017 0.934819 10.0299 5.0465 12.4104 7.39896C14.5933 9.55594 18.3552 8.48445 19.1261 5.48616C19.8483 2.67734 17.3809 -0.0960948 14.5821 0.37854ZM6.07117 2.48054C3.33811 3.39733 3.01853 7.09808 5.56599 8.32961C8.19212 9.59915 10.9613 6.83216 9.71821 4.18061C9.08027 2.81972 7.39784 2.03547 6.07117 2.48054ZM22.564 2.51772C20.3535 3.25481 19.7055 6.06121 21.3585 7.7385C22.8622 9.26427 25.402 8.79704 26.3323 6.82351C27.4732 4.40359 25.0866 1.67662 22.564 2.51772ZM16.1392 2.54992C18.0507 3.51754 17.4903 6.41001 15.3645 6.54824C14.7005 6.59138 14.2794 6.44471 13.8041 6.0047C12.0264 4.35885 13.9858 1.45987 16.1392 2.54992ZM7.51159 4.14467C8.49469 4.60836 8.70797 5.76309 7.9556 6.54859C6.6106 7.95275 4.53709 5.93019 5.8464 4.49126C6.30168 3.99086 6.91494 3.86324 7.51159 4.14467ZM24.1708 4.15983C25.1436 4.6578 25.2929 5.93054 24.4651 6.66686C23.5893 7.44578 22.162 6.83542 22.048 5.63318C21.9408 4.50317 23.1721 3.64857 24.1708 4.15983ZM4.92852 9.44895C2.29685 10.0111 0.870435 11.2271 0.788607 12.9782C0.707122 14.7206 1.00791 14.9212 3.70166 14.9212C5.93103 14.9212 5.74263 15.0031 5.77223 14.0209C5.80169 13.0413 5.94156 13.1207 4.1851 13.1207C2.54616 13.1207 2.55224 13.1223 2.65136 12.7224C2.84298 11.9491 4.48828 11.2086 6.18513 11.1321L7.05098 11.093L7.6207 10.6792C7.934 10.4515 8.35086 10.185 8.54698 10.0869C8.99276 9.86403 9.04451 9.74887 8.75364 9.62713C8.00427 9.31343 5.99994 9.22008 4.92852 9.44895ZM22.5461 9.41364C21.2844 9.64874 21.2408 9.7272 22.0947 10.2243C22.4104 10.4081 22.8094 10.6753 22.9814 10.8181L23.294 11.0778L24.1847 11.1212C25.8878 11.2041 27.3734 11.8254 27.74 12.608C27.9579 13.0731 27.9328 13.0814 26.196 13.1207L24.6652 13.1553L24.6458 13.9418C24.6194 15.0137 24.4229 14.9212 26.7271 14.9212C29.4263 14.9212 29.6549 14.783 29.6554 13.1517C29.6561 10.6008 26.1285 8.74607 22.5461 9.41364ZM14.001 9.8774C10.7131 10.2534 7.82551 11.6603 7.27329 13.1555C7.09617 13.6351 7.06021 15.7937 7.22284 16.1872C7.36858 16.5398 7.82277 16.9122 8.16792 16.9621C8.33062 16.9856 11.6038 16.9957 15.4416 16.9845L22.4194 16.964L22.7036 16.7735C23.5097 16.233 23.6115 13.739 22.872 12.6449C21.6862 10.8905 17.2484 9.50601 14.001 9.8774ZM17.4029 12.0089C18.8926 12.3337 20.5456 13.0168 21.0737 13.5257L21.3498 13.7917V14.3426C21.3498 15.1363 22.007 15.0597 15.1973 15.0597C8.43692 15.0597 9.04485 15.123 9.04485 14.4191C9.04485 13.8132 9.14671 13.6191 9.63809 13.2886C11.4524 12.0687 14.998 11.4843 17.4029 12.0089Z" fill="white"/>
</svg>
