<svg width="37" height="37" viewBox="0 0 37 37" fill="none" xmlns="http://www.w3.org/2000/svg">
<path d="M30.7085 10.0724V15.8032C30.7085 15.8032 26.9772 15.8224 26.9585 15.8032V10.0724H21.3335C21.3335 10.0724 21.3522 6.25821 21.3335 6.23904H26.9585V0.489044H30.7085V6.23904H36.3335V10.0724H30.7085ZM25.0835 17.739V11.989H19.4585V6.23904H4.7085C2.49936 6.23904 0.708496 8.02991 0.708496 10.239V32.9057C0.708496 35.1149 2.49936 36.9057 4.7085 36.9057H26.7085C28.9176 36.9057 30.7085 35.1148 30.7085 32.9057V17.739H25.0835ZM4.4585 33.0724L10.0835 25.4057L13.8335 31.1557L19.4585 23.489L26.9585 33.0724H4.4585Z" fill="white"/>
</svg>
