<svg width="380" height="380" viewBox="0 0 380 380" fill="none" xmlns="http://www.w3.org/2000/svg">
<g clip-path="url(#clip0_613:9214)">
<path d="M114.724 227.291C113.289 233.439 117.11 239.587 123.258 241.022C129.403 242.457 135.548 238.641 136.987 232.498L155.037 155.483L222.614 264.214C225.956 269.59 233.022 271.24 238.399 267.899C243.775 264.557 245.424 257.491 242.083 252.114L174.506 143.383L251.432 161.412C257.622 162.862 263.814 159.018 265.259 152.827C266.703 146.641 262.858 140.455 256.672 139.011L152.981 114.807C146.696 113.34 140.411 117.246 138.944 123.531L114.724 227.291Z" fill="white"/>
</g>
<defs>
<clipPath id="clip0_613:9214">
<rect width="275.066" height="275.066" fill="white" transform="translate(0.589844 145.812) rotate(-31.8611)"/>
</clipPath>
</defs>
</svg>
