<svg width="27" height="24" viewBox="0 0 27 24" fill="none" xmlns="http://www.w3.org/2000/svg">
<path d="M13.8824 17.2214C16.0451 17.2214 17.7984 15.4681 17.7984 13.3053C17.7984 11.1426 16.0451 9.38928 13.8824 9.38928C11.7196 9.38928 9.96631 11.1426 9.96631 13.3053C9.96631 15.4681 11.7196 17.2214 13.8824 17.2214Z" fill="black"/>
<path d="M20.1871 2.86253L18.6903 1.22666C18.122 0.605562 17.3188 0.251831 16.477 0.251831H11.2875C10.4457 0.251831 9.64253 0.605563 9.07422 1.22666L7.5774 2.86253H3.82874C2.17188 2.86253 0.828735 4.20568 0.828735 5.86253V20.7481C0.828735 22.405 2.17188 23.7481 3.82874 23.7481H23.9357C25.5926 23.7481 26.9358 22.405 26.9358 20.7481V5.86253C26.9358 4.20568 25.5926 2.86253 23.9358 2.86253H20.1871ZM13.8822 19.8321C10.2795 19.8321 7.35549 16.9081 7.35549 13.3053C7.35549 9.70257 10.2795 6.77858 13.8822 6.77858C17.485 6.77858 20.409 9.70257 20.409 13.3053C20.409 16.9081 17.485 19.8321 13.8822 19.8321Z" fill="black"/>
</svg>
