<svg width="18" height="5" viewBox="0 0 18 5" fill="none" xmlns="http://www.w3.org/2000/svg">
<path opacity="0.6" d="M2.5612 0.278717C1.36953 0.278717 0.394531 1.25372 0.394531 2.44538C0.394531 3.63705 1.36953 4.61205 2.5612 4.61205C3.75286 4.61205 4.72786 3.63705 4.72786 2.44538C4.72786 1.25372 3.75286 0.278717 2.5612 0.278717ZM15.5612 0.278717C14.3695 0.278717 13.3945 1.25372 13.3945 2.44538C13.3945 3.63705 14.3695 4.61205 15.5612 4.61205C16.7529 4.61205 17.7279 3.63705 17.7279 2.44538C17.7279 1.25372 16.7529 0.278717 15.5612 0.278717ZM9.0612 0.278717C7.86953 0.278717 6.89453 1.25372 6.89453 2.44538C6.89453 3.63705 7.86953 4.61205 9.0612 4.61205C10.2529 4.61205 11.2279 3.63705 11.2279 2.44538C11.2279 1.25372 10.2529 0.278717 9.0612 0.278717Z" fill="white"/>
</svg>
