<svg width="14" height="15" viewBox="0 0 14 15" fill="none" xmlns="http://www.w3.org/2000/svg">
<path d="M6.3 10.9454L7.7 10.9454L7.7 9.54539L6.3 9.54539L6.3 10.9454ZM6.3 8.14539L7.7 8.14539L7.7 3.94539L6.3 3.94539L6.3 8.14539Z" fill="#FF3434"/>
<path d="M7.007 14.4454C10.871 14.4454 14 11.3094 14 7.44539C14 3.58139 10.871 0.445388 7.007 0.445388C3.136 0.445389 -1.90344e-06 3.58139 -1.56563e-06 7.44539C-1.22783e-06 11.3094 3.136 14.4454 7.007 14.4454ZM7 1.84539C10.094 1.84539 12.6 4.35139 12.6 7.44539C12.6 10.5394 10.094 13.0454 7 13.0454C3.906 13.0454 1.4 10.5394 1.4 7.44539C1.4 4.35139 3.906 1.84539 7 1.84539Z" fill="#FF3434"/>
</svg>
