<svg width="191" height="441" viewBox="0 0 191 441" fill="none" xmlns="http://www.w3.org/2000/svg">
<path d="M68.8008 421.791L69.9999 416.72C70.2787 415.541 70.9981 414.514 72.0106 413.849C72.291 413.665 72.5902 413.511 72.9031 413.39L77.1936 411.73C77.6414 411.557 78.0748 411.349 78.4899 411.107C80.9249 409.692 82.5712 407.233 82.9522 404.442L83.0427 403.779L83.1634 400.829C83.2139 399.595 84.1683 398.587 85.3981 398.47C86.1948 398.395 86.9054 397.938 87.3049 397.244L88.0501 395.951C88.8336 394.591 88.982 392.957 88.4564 391.478L87.5752 388.999C87.2629 388.12 87.0628 387.206 86.9799 386.277L85.771 372.746L86.7395 349.079C86.5101 338.842 86.0703 317.906 86.1462 316.05C86.2222 314.194 87.9279 304.192 88.7713 299.423L90.5775 279.044L92.5968 260.591C92.6658 259.96 93.5508 259.878 93.7352 260.485C93.7541 260.548 93.7625 260.613 93.7598 260.679L93.5405 266.039C93.5122 266.73 93.5378 267.421 93.6257 268.108C93.9046 270.284 94.3645 273.452 94.6692 274.098C95.1166 275.046 95.4311 279.242 95.8595 280.654C96.2879 282.066 98.0394 286.786 98.4678 288.199C98.8962 289.611 101.019 297.135 101.467 298.083C101.824 298.841 101.997 304.922 102.038 307.868L102.754 326.027L101.824 348.766L99.513 369.59L99.5807 377.23C99.5932 378.637 99.834 380.033 100.294 381.363L102.208 386.899L102.81 389.932C103.209 391.943 104.078 393.832 105.347 395.443L107.308 397.935C107.487 398.161 107.689 398.367 107.913 398.548L110.376 400.541C111.101 401.128 111.074 402.242 110.322 402.793C109.561 403.35 109.543 404.48 110.286 405.061L112.258 406.6C112.468 406.764 112.657 406.953 112.822 407.162L115.2 410.184C116.202 411.456 116.825 412.984 116.999 414.594C117.056 415.129 117.164 415.658 117.32 416.173L117.968 418.309C118.236 419.191 118.596 420.041 119.043 420.846L121.54 425.343C122.68 428.083 124.795 430.303 127.476 431.574L130.081 432.809C131.283 433.379 132.566 433.761 133.885 433.942L135.601 434.177C136.352 434.28 137.111 434.317 137.868 434.288L140.262 434.195C141.782 434.137 143.269 433.728 144.605 433.002C145.887 432.306 146.998 431.335 147.861 430.159L148.137 429.783C150.083 427.129 150.852 423.792 150.264 420.555L149.995 419.07L148.357 411.565L147.797 409.367C147.075 406.531 145.417 404.022 143.092 402.246L139.61 399.586C138.307 398.502 138.119 396.572 139.188 395.258L139.379 395.023C139.669 394.665 139.884 394.253 140.01 393.81L140.963 390.468C141.323 389.204 141.213 387.853 140.652 386.665L140.578 386.508C140.315 385.951 139.943 385.453 139.482 385.043C137.952 383.681 137.514 381.468 138.408 379.625L139.188 378.019C139.429 377.522 139.61 376.998 139.727 376.459L140.511 372.841C140.67 372.11 140.765 371.366 140.795 370.618L141.072 363.853L141.234 359.888C141.291 358.518 141.129 357.147 140.757 355.827L139.758 352.288C139.386 350.968 139.225 349.597 139.281 348.226L139.481 343.334C140.169 338.404 141.552 328.358 141.583 327.615L142.399 307.66L141.608 291.358C141.417 288.097 141.04 281.48 141.055 281.109C141.067 280.815 140.357 278.339 139.777 276.385C139.503 275.465 139.38 274.507 139.419 273.548L139.451 272.766C139.527 270.93 140.349 269.205 141.728 267.991C142.302 267.485 142.958 267.081 143.668 266.796L149.604 264.412C150.53 264.04 151.411 263.562 152.228 262.988L157.056 259.599C158.019 258.923 158.885 258.122 159.628 257.211C161.983 254.33 165.325 250.196 165.681 249.577C165.984 249.052 167.731 246.771 169.257 244.81C170.269 243.51 170.856 241.929 170.923 240.283C170.968 239.198 170.786 238.116 170.389 237.106L168.468 232.209C167.809 230.529 167.507 228.731 167.58 226.929L167.905 218.988L169.95 204.662L172.708 191.938C172.867 191.207 172.962 190.463 172.992 189.715L173.592 175.06L174.219 159.746C174.243 159.161 174 155.261 173.797 152.187C173.699 150.713 173.347 149.268 172.759 147.913L170.981 143.809L170.389 141.858C169.944 140.39 170.077 138.808 170.761 137.435C171.107 136.741 171.585 136.12 172.167 135.607L173.303 134.607L175.061 133.058C176.067 132.173 176.236 130.669 175.453 129.582L173.577 127.391C172.367 125.977 171.475 124.321 170.96 122.533L168.761 114.897L166.569 106.494C166.076 104.603 165.162 102.847 163.896 101.358L158.862 95.4336L151.969 88.2811C151.281 87.5672 150.514 86.9344 149.682 86.395L140.988 80.7568L130.594 74.215C129.628 73.6071 128.586 73.1291 127.496 72.7932L116.972 69.5518C115.812 69.1944 114.73 68.6183 113.787 67.8546L113.547 67.6606C111.893 66.3224 110.787 64.4249 110.437 62.3266C110.279 61.384 110.278 60.422 110.434 59.4791L111.055 55.7124C111.343 53.964 112.035 52.307 113.076 50.8732C114.395 49.0569 115.148 46.8912 115.24 44.6482L115.403 40.6627L115.631 35.0938L115.897 28.5969L115.976 26.6683C116.108 23.4312 115.024 20.2617 112.936 17.7842L108.595 12.4551C108.095 11.8415 107.54 11.2749 106.938 10.7622L105.187 9.27338C103.539 7.87179 101.567 6.90368 99.4502 6.4568L97.4624 6.03717C95.5018 5.62326 93.4719 5.66821 91.5315 6.16852L87.0513 7.32367C85.7882 7.64935 84.5813 8.1633 83.4711 8.84823L80.8399 10.4716C78.1503 12.131 76.1573 14.7132 75.2336 17.7354L73.8603 22.2283L72.4887 29.1181C72.1817 30.66 72.157 32.2448 72.4157 33.7955L73.7371 41.716C73.8962 42.6698 74.1627 43.6023 74.5216 44.5003C75.5977 47.1935 77.0579 51.0168 77.0322 51.6435L76.7474 58.6046L76.8493 62.7825C76.8969 64.7343 75.6921 66.4983 73.8568 67.1641C73.6024 67.2564 73.3568 67.3712 73.1228 67.5072L70.4863 69.0399L66.3965 71.1689C65.8122 71.473 65.2519 71.8211 64.7204 72.2102L59.5046 76.0281L51.53 80.8151L42.2833 85.3867C41.5028 85.7725 40.7631 86.2358 40.0752 86.7696L34.8428 90.8297C33.3481 91.9895 32.1245 93.4616 31.2576 95.1432L28.349 100.785L21.6208 114.029C21.1741 114.909 20.5893 115.711 19.8886 116.405C16.0804 120.18 16.2773 126.394 20.317 129.919L20.7513 130.298C23.1478 132.39 24.3759 135.517 24.043 138.681L22.1875 156.314L20.3053 178.55L20.4753 195.417C20.49 196.873 20.7493 198.317 21.2424 199.687L22.8792 204.236C23.3259 205.477 23.581 206.78 23.6358 208.098L25.0222 241.498L25.2553 245.486C25.4709 249.175 27.2463 252.598 30.1376 254.899L37.2453 260.556C40.0279 262.771 41.7817 266.028 42.0982 269.571L43.9367 290.151L44.511 323.643L46.7331 361.661C46.7768 362.408 46.885 363.151 47.0565 363.88L51.2469 381.689C51.5426 382.945 50.8333 384.22 49.6099 384.632C49.4067 384.7 49.2131 384.794 49.034 384.912L47.9368 385.633C47.5216 385.905 47.1762 386.271 46.9283 386.702C46.2218 387.928 46.4114 389.474 47.3935 390.493L49 392.16L51.2274 394.215C52.3283 395.231 52.4036 396.945 51.3961 398.054C51.2525 398.212 51.0908 398.353 50.9143 398.473L46.6788 401.362C45.8445 401.947 43.8772 403.292 42.682 403.987C41.7428 404.533 41.3181 405.712 41.1638 406.568C41.0943 406.953 41.2467 407.336 41.5184 407.618C42.0595 408.179 42.0528 409.07 41.5032 409.624L38.9427 412.201L34.783 417.676C34.1335 418.531 33.6042 419.47 33.2097 420.468L32.763 421.599C32.0344 423.443 31.9795 425.484 32.6078 427.364C33.1044 428.85 34.0056 430.168 35.21 431.17L35.5143 431.423C37.1713 432.802 39.2361 433.596 41.3897 433.685L47.2867 433.926C47.9358 433.952 48.5859 433.93 49.2317 433.86L54.8789 433.242C56.6349 433.05 58.3333 432.502 59.8704 431.632L62.5547 430.112C65.7043 428.329 67.9679 425.313 68.8008 421.791Z" stroke="#83D333" stroke-width="4"/>
<path d="M94.4979 117.819C78.6797 117.819 65.8418 130.657 65.8418 146.475C65.8418 162.293 78.6797 175.131 94.4979 175.131C110.316 175.131 123.154 162.293 123.154 146.475C123.154 130.657 110.316 117.819 94.4979 117.819ZM88.7667 160.803L74.4386 146.475L78.4791 142.434L88.7667 152.693L110.517 130.943L114.557 135.013L88.7667 160.803Z" fill="#83D333"/>
<rect x="0.5" y="190.273" width="190" height="31" rx="15.5" fill="#83D333"/>
<path d="M15.8652 211.273H18.2246V207.148H20.1543L22.2559 211.273H24.9277L22.5527 206.797C23.8418 206.289 24.5918 205.047 24.5918 203.602V203.586C24.5918 201.367 23.123 200 20.5605 200H15.8652V211.273ZM18.2246 205.43V201.844H20.2715C21.4512 201.844 22.1777 202.547 22.1777 203.633V203.648C22.1777 204.758 21.4824 205.43 20.3027 205.43H18.2246ZM26.9746 211.273H34.4434V209.328H29.334V206.477H34.1543V204.664H29.334V201.945H34.4434V200H26.9746V211.273ZM40.959 211.562C43.7715 211.562 45.5059 210.148 45.5059 207.914V207.906C45.5059 206.148 44.4668 205.195 42.084 204.703L40.8887 204.461C39.5605 204.188 39.0137 203.75 39.0137 203.016V203.008C39.0137 202.164 39.7871 201.633 40.9512 201.625C42.1387 201.625 42.9199 202.188 43.0527 202.992L43.0684 203.086H45.2871L45.2793 202.984C45.1309 201.102 43.584 199.711 40.9512 199.711C38.4512 199.711 36.6543 201.094 36.6543 203.188V203.195C36.6543 204.906 37.6621 206 40.0059 206.477L41.1934 206.719C42.5918 207.008 43.1465 207.422 43.1465 208.164V208.172C43.1465 209.039 42.2793 209.641 41.0215 209.641C39.7012 209.641 38.7871 209.07 38.7012 208.227L38.6934 208.148H36.4199L36.4277 208.273C36.5605 210.273 38.2637 211.562 40.959 211.562ZM52.5293 211.562C55.248 211.562 57.1777 209.953 57.4199 207.594L57.4277 207.508H55.1309L55.1152 207.57C54.8652 208.773 53.8887 209.562 52.5371 209.562C50.7559 209.562 49.6543 208.062 49.6543 205.641V205.625C49.6543 203.203 50.7559 201.711 52.5293 201.711C53.873 201.711 54.8809 202.57 55.123 203.836V203.891H57.4199V203.797C57.2012 201.414 55.2012 199.711 52.5293 199.711C49.2559 199.711 47.2402 201.969 47.2402 205.625V205.641C47.2402 209.297 49.2637 211.562 52.5293 211.562ZM64.3184 211.562C67.2246 211.562 69.0371 209.883 69.0371 207.383V200H66.6777V207.172C66.6777 208.633 65.834 209.562 64.3184 209.562C62.8027 209.562 61.9512 208.633 61.9512 207.172V200H59.5918V207.383C59.5918 209.891 61.4277 211.562 64.3184 211.562ZM71.7715 211.273H79.2402V209.328H74.1309V206.477H78.9512V204.664H74.1309V201.945H79.2402V200H71.7715V211.273ZM90.6387 211.562C93.3574 211.562 95.2871 209.953 95.5293 207.594L95.5371 207.508H93.2402L93.2246 207.57C92.9746 208.773 91.998 209.562 90.6465 209.562C88.8652 209.562 87.7637 208.062 87.7637 205.641V205.625C87.7637 203.203 88.8652 201.711 90.6387 201.711C91.9824 201.711 92.9902 202.57 93.2324 203.836V203.891H95.5293V203.797C95.3105 201.414 93.3105 199.711 90.6387 199.711C87.3652 199.711 85.3496 201.969 85.3496 205.625V205.641C85.3496 209.297 87.373 211.562 90.6387 211.562ZM102.639 211.562C105.967 211.562 108.061 209.281 108.061 205.641V205.625C108.061 201.984 105.959 199.711 102.639 199.711C99.3184 199.711 97.209 201.977 97.209 205.625V205.641C97.209 209.281 99.2871 211.562 102.639 211.562ZM102.639 209.562C100.779 209.562 99.6152 208.023 99.6152 205.641V205.625C99.6152 203.234 100.803 201.711 102.639 201.711C104.467 201.711 105.654 203.234 105.654 205.625V205.641C105.654 208.023 104.475 209.562 102.639 209.562ZM110.303 211.273H112.404V203.602H112.561L115.451 211.273H116.928L119.818 203.602H119.975V211.273H122.076V200H119.373L116.264 208.25H116.123L113.006 200H110.303V211.273ZM124.818 211.273H127.178V207.719H129.467C131.842 207.719 133.428 206.188 133.428 203.867V203.852C133.428 201.531 131.842 200 129.467 200H124.818V211.273ZM128.889 201.867C130.24 201.867 131.037 202.578 131.037 203.859V203.875C131.037 205.156 130.24 205.875 128.889 205.875H127.178V201.867H128.889ZM135.6 211.273H142.975V209.328H137.959V200H135.6V211.273ZM145.115 211.273H152.584V209.328H147.475V206.477H152.295V204.664H147.475V201.945H152.584V200H145.115V211.273ZM157.803 211.273H160.162V201.945H163.545V200H154.42V201.945H157.803V211.273ZM165.631 211.273H173.1V209.328H167.99V206.477H172.811V204.664H167.99V201.945H173.1V200H165.631V211.273Z" fill="#191B25"/>
</svg>
