<svg width="21" height="13" viewBox="0 0 21 13" fill="none" xmlns="http://www.w3.org/2000/svg">
<path opacity="0.5" fill-rule="evenodd" clip-rule="evenodd" d="M9.93392 0.261715C7.57337 0.662015 6.65814 3.62079 8.37122 5.31363C9.94203 6.8658 12.649 6.09475 13.2038 3.93717C13.7235 1.91594 11.948 -0.079834 9.93392 0.261715ZM3.80945 1.77432C1.84274 2.43404 1.61276 5.09711 3.44592 5.98333C5.3357 6.8969 7.32839 4.90576 6.43387 2.99769C5.97481 2.0184 4.76413 1.45405 3.80945 1.77432ZM15.6777 1.80108C14.0871 2.33149 13.6208 4.35098 14.8103 5.55796C15.8923 6.65591 17.72 6.31969 18.3895 4.89953C19.2104 3.15815 17.493 1.19582 15.6777 1.80108ZM11.0544 1.82425C12.4299 2.52055 12.0267 4.60198 10.497 4.70145C10.0192 4.73249 9.71614 4.62695 9.37411 4.31031C8.09486 3.12596 9.50481 1.03984 11.0544 1.82425ZM4.84599 2.97183C5.55342 3.30551 5.7069 4.13645 5.16549 4.7017C4.19763 5.71214 2.70552 4.2567 3.64771 3.22124C3.97533 2.86115 4.41664 2.76931 4.84599 2.97183ZM16.834 2.98274C17.534 3.34109 17.6415 4.25695 17.0458 4.78681C16.4156 5.34732 15.3885 4.9081 15.3064 4.04297C15.2293 3.22981 16.1153 2.61483 16.834 2.98274ZM2.9872 6.78881C1.09344 7.19335 0.0669887 8.0684 0.0081053 9.32845C-0.0505321 10.5823 0.165915 10.7266 2.10434 10.7266C3.70861 10.7266 3.57303 10.7856 3.59433 10.0788C3.61554 9.3739 3.71618 9.431 2.45223 9.431C1.27284 9.431 1.27722 9.43215 1.34855 9.14437C1.48644 8.5879 2.6704 8.05504 3.89146 7.99998L4.51453 7.97187L4.9245 7.67408C5.14995 7.51023 5.44992 7.31847 5.59106 7.24791C5.91184 7.0875 5.94908 7.00463 5.73977 6.91703C5.20052 6.69129 3.75819 6.62412 2.9872 6.78881ZM15.6648 6.7634C14.7569 6.93258 14.7256 6.98904 15.34 7.34673C15.5672 7.47898 15.8543 7.67129 15.9781 7.77409L16.2031 7.96096L16.844 7.99215C18.0696 8.05185 19.1386 8.4989 19.4024 9.06205C19.5592 9.39677 19.5412 9.40275 18.2913 9.431L17.1898 9.45592L17.1758 10.0219C17.1568 10.7932 17.0154 10.7266 18.6735 10.7266C20.6159 10.7266 20.7804 10.6272 20.7807 9.45333C20.7812 7.61772 18.2428 6.28302 15.6648 6.7634ZM9.51578 7.09712C7.14977 7.36766 5.07188 8.3801 4.6745 9.45607C4.54705 9.80121 4.52117 11.3545 4.6382 11.6377C4.74308 11.8914 5.06991 12.1594 5.31828 12.1953C5.43536 12.2122 7.79075 12.2195 10.5524 12.2114L15.5737 12.1967L15.7782 12.0596C16.3583 11.6707 16.4315 9.87595 15.8994 9.08866C15.0461 7.82616 11.8526 6.82987 9.51578 7.09712ZM11.9638 8.63095C13.0358 8.86471 14.2253 9.35625 14.6053 9.72247L14.804 9.91387V10.3103C14.804 10.8814 15.277 10.8263 10.3766 10.8263C5.51186 10.8263 5.94933 10.8718 5.94933 10.3654C5.94933 9.92932 6.02262 9.78964 6.37622 9.55185C7.68184 8.67401 10.2332 8.25347 11.9638 8.63095Z" fill="white"/>
</svg>
