<svg width="36" height="35" viewBox="0 0 36 35" fill="none" xmlns="http://www.w3.org/2000/svg">
<rect x="2.13867" y="1.94537" width="31.4662" height="31.4662" rx="15.7331" fill="#FF3434" stroke="#191B25" stroke-width="3"/>
<path d="M22.5 14.4454H21.75V12.9454C21.75 10.8754 20.07 9.19537 18 9.19537C15.93 9.19537 14.25 10.8754 14.25 12.9454V14.4454H13.5C12.675 14.4454 12 15.1204 12 15.9454V23.4454C12 24.2704 12.675 24.9454 13.5 24.9454H22.5C23.325 24.9454 24 24.2704 24 23.4454V15.9454C24 15.1204 23.325 14.4454 22.5 14.4454ZM15.675 12.9454C15.675 11.6629 16.7175 10.6204 18 10.6204C19.2825 10.6204 20.325 11.6629 20.325 12.9454V14.4454H15.675V12.9454ZM22.5 23.4454H13.5V15.9454H22.5V23.4454Z" fill="white"/>
</svg>
