<svg width="220" height="52" viewBox="0 0 220 52" fill="none" xmlns="http://www.w3.org/2000/svg">
<path fill-rule="evenodd" clip-rule="evenodd" d="M178.873 8.80166C178.562 9.76085 178.308 10.5959 178.308 10.6572C178.308 10.7379 179.7 10.769 183.305 10.769H188.302L188.874 8.98862C189.188 8.00947 189.445 7.17435 189.444 7.13303C189.442 7.0917 187.191 7.0578 184.44 7.0578H179.438L178.873 8.80166ZM64.3112 14.4049C64.2854 14.4739 63.9934 15.3414 63.6624 16.3327C63.3314 17.3239 63.0606 18.1699 63.0606 18.2127C63.0606 18.2554 66.6568 18.302 71.0522 18.3161L79.0438 18.3418L68.5148 25.9474L57.9859 33.553L57.4139 35.2785C57.0992 36.2276 56.8419 37.0366 56.8419 37.0763C56.8419 37.116 63.5117 37.1485 71.6637 37.1485H86.4856L87.0229 35.4684C87.3184 34.5444 87.5821 33.7096 87.609 33.6134C87.655 33.4482 87.2097 33.4371 79.6289 33.4128L71.6001 33.3871L82.1255 25.7642L92.6508 18.1412L93.2521 16.297C93.5828 15.2827 93.8534 14.4139 93.8534 14.3662C93.8534 14.318 87.3211 14.2796 79.1059 14.2796C67.3997 14.2796 64.3486 14.3054 64.3112 14.4049ZM114.097 14.5184C113.784 14.6471 113.239 14.9585 112.886 15.2106C112.533 15.4625 112.127 15.8227 111.983 16.011C111.798 16.2533 110.826 19.0854 108.655 25.7096C106.63 31.8904 105.589 35.2072 105.589 35.4822C105.589 35.7593 105.671 36.0199 105.836 36.2624C105.972 36.4626 106.254 36.7326 106.463 36.8624L106.843 37.0983L114.281 37.1259L121.72 37.1534L121.873 36.6746C121.957 36.4112 122.232 35.5481 122.484 34.7567C122.735 33.9653 122.941 33.277 122.941 33.2271C122.941 33.1751 121.675 33.1364 119.97 33.1364H117L117.058 32.9107C117.089 32.7865 118.167 29.4249 119.452 25.4402L121.788 18.1955L125.975 18.1934C128.278 18.1923 130.163 18.2064 130.163 18.2248C130.163 18.2431 128.79 22.4971 127.113 27.6782L124.063 37.0983L129.285 37.1243C132.157 37.1385 134.524 37.1341 134.543 37.1145C134.563 37.0947 136.068 32.4862 137.888 26.8734C139.707 21.2606 141.196 16.54 141.196 16.3832C141.196 16.2263 141.148 15.971 141.09 15.8157C141.032 15.6604 140.869 15.3655 140.728 15.1605C140.577 14.9415 140.261 14.6829 139.961 14.5336L139.452 14.2796L127.059 14.282L114.666 14.2843L114.097 14.5184ZM144.406 14.3539C144.406 14.3957 145.805 16.9305 147.515 19.9867C149.225 23.0428 150.624 25.5787 150.624 25.622C150.624 25.6655 147.544 28.2346 143.779 31.3313C140.014 34.4281 136.918 37.0037 136.9 37.0551C136.879 37.112 138.91 37.1485 142.092 37.1485H147.318L150.695 34.3711C152.553 32.8436 154.088 31.6363 154.107 31.688C154.126 31.7399 154.831 32.9784 155.674 34.4403L157.207 37.0983L162.341 37.1243C165.165 37.1386 167.475 37.1119 167.475 37.0649C167.475 37.018 166.052 34.4595 164.312 31.3795C161.768 26.8775 161.173 25.7558 161.278 25.6591C161.349 25.5928 164.431 23.0444 168.127 19.996C171.823 16.9475 174.863 14.4143 174.881 14.3664C174.9 14.3182 172.604 14.2796 169.712 14.2796H164.51L161.16 17.0554L157.811 19.8313L157.653 19.5947C157.566 19.4645 156.863 18.2267 156.091 16.8439L154.686 14.3297L149.546 14.3037C146.719 14.2894 144.406 14.312 144.406 14.3539ZM177.05 14.4049C177.024 14.4739 175.38 19.5333 173.396 25.6481C171.413 31.7628 169.762 36.8524 169.729 36.9581C169.669 37.1461 169.78 37.1498 174.705 37.1243L179.742 37.0983L183.437 25.714C185.469 19.4527 187.132 14.3184 187.133 14.3046C187.134 14.2909 184.876 14.2796 182.116 14.2796C178.194 14.2796 177.088 14.3069 177.05 14.4049ZM192.408 14.4285C192.192 14.5056 191.718 14.7722 191.355 15.0208C190.992 15.2693 190.454 15.7179 190.159 16.0174L189.623 16.562L188.365 20.4108C187.11 24.25 187.107 24.2621 187.096 25.2627C187.085 26.163 187.108 26.2993 187.318 26.594C187.447 26.7745 187.741 27.0228 187.97 27.1456L188.388 27.369L196.698 27.3963C203.708 27.4194 205 27.4453 204.955 27.5619C204.926 27.6379 204.484 28.9909 203.973 30.5686L203.044 33.4373H193.607H184.171L183.597 35.1705C183.281 36.1239 183.022 36.9596 183.022 37.0279C183.022 37.1259 185.916 37.1463 196.839 37.1251L210.655 37.0983L211.219 36.8212C211.53 36.6687 211.994 36.3592 212.25 36.1333C212.507 35.9073 212.845 35.5356 213.002 35.3071C213.191 35.0321 213.736 33.5183 214.614 30.8294C215.697 27.5131 215.942 26.6567 215.946 26.1654C215.95 25.8101 215.882 25.3992 215.781 25.1624C215.687 24.9417 215.466 24.609 215.289 24.4229C215.113 24.2369 214.788 24.001 214.567 23.8986C214.187 23.7221 213.744 23.7123 206.117 23.7102C201.69 23.709 198.067 23.6791 198.067 23.6437C198.067 23.6083 198.436 22.4461 198.888 21.0609C199.461 19.2983 199.783 18.4597 199.959 18.2666L200.211 17.9907H209.511H218.81L219.372 16.2447C219.681 15.2844 219.933 14.4494 219.933 14.3891C219.933 14.3105 216.113 14.2808 206.367 14.284C195.013 14.2877 192.738 14.3113 192.408 14.4285ZM93.9184 24.5866C93.8925 24.6287 93.6365 25.2492 93.3498 25.9658C93.0629 26.6824 92.8056 27.3256 92.7781 27.395C92.738 27.4958 93.729 27.5161 97.6725 27.4953L102.617 27.4693L103.2 26.0196C103.521 25.2223 103.783 24.5565 103.783 24.5402C103.783 24.5238 101.574 24.5104 98.8744 24.5104C96.1745 24.5104 93.9444 24.5447 93.9184 24.5866Z" fill="white"/>
<mask id="path-2-outside-1" maskUnits="userSpaceOnUse" x="0" y="-0.396301" width="52" height="52" fill="black">
<rect fill="white" y="-0.396301" width="52" height="52"/>
<path fill-rule="evenodd" clip-rule="evenodd" d="M34.7416 2.31149L36.4887 1.43104C37.641 0.850387 38.3041 0.569842 38.4364 0.606954C38.5467 0.637947 39.1109 0.934943 39.6902 1.26694C40.2694 1.59894 41.0819 2.09765 41.4956 2.37518C41.9094 2.65282 42.5905 3.13949 43.0093 3.45664C43.428 3.7739 44.2518 4.46789 44.8398 4.99889C45.4279 5.52979 45.9089 6.01455 45.9089 6.07593C45.9089 6.13742 45.5227 6.70192 45.0506 7.33042L44.1923 8.47316L44.602 8.94398C44.8273 9.20296 45.2982 9.77599 45.6485 10.2173C45.9988 10.6586 46.5866 11.4711 46.9546 12.0228C47.3226 12.5744 47.9806 13.748 48.4169 14.6306C48.8531 15.5133 49.3956 16.7771 49.6224 17.4391C49.8492 18.1011 50.1645 19.1843 50.323 19.8463C50.4816 20.5083 50.6914 21.569 50.7893 22.2034C50.9211 23.0573 50.9682 23.9693 50.9704 25.714C50.9723 27.1893 50.923 28.4088 50.8386 28.9738C50.7645 29.4703 50.595 30.4003 50.4622 31.0406C50.3293 31.6808 50.0583 32.7172 49.8599 33.3436C49.6615 33.9701 49.2759 35.0035 49.0029 35.64C48.7299 36.2766 48.2565 37.2454 47.9508 37.7929C47.6451 38.3404 47.1337 39.177 46.8143 39.652C46.495 40.1271 45.9503 40.8752 45.6042 41.3145C45.2579 41.7539 44.4514 42.6478 43.8119 43.3009C43.1724 43.9541 42.2429 44.8158 41.7464 45.2158C41.2499 45.6159 40.4374 46.2148 39.9409 46.5467C39.4444 46.8786 38.6679 47.3625 38.2152 47.6219C37.7626 47.8814 36.8824 48.3224 36.2593 48.602C35.6363 48.8815 34.5397 49.3034 33.8225 49.5395C33.1053 49.7756 31.9544 50.0841 31.2648 50.225C30.5752 50.3659 29.5822 50.5383 29.0581 50.608C28.5158 50.6803 27.1545 50.7318 25.8986 50.7277C24.3959 50.7228 23.3462 50.668 22.6082 50.5561C22.0121 50.4657 21.017 50.2779 20.3968 50.1388C19.7766 49.9997 18.7523 49.7119 18.1205 49.4994L16.9717 49.1128L15.2835 49.9559L13.5954 50.7988L12.6255 50.284C12.0921 50.0008 11.0915 49.3929 10.4019 48.9329C9.71233 48.473 8.83218 47.8426 8.44602 47.5321C8.05985 47.2216 7.34901 46.6056 6.86626 46.1631C6.3835 45.7208 5.98861 45.3096 5.98861 45.2494C5.98861 45.1892 6.37217 44.6293 6.84098 44.0051L7.69345 42.8703L6.82945 41.8399C6.35431 41.2732 5.60496 40.2679 5.16413 39.6059C4.7234 38.9439 4.00714 37.6801 3.57253 36.7974C3.10733 35.8525 2.57894 34.5739 2.28756 33.688C2.01544 32.8605 1.67973 31.6419 1.54161 30.9799C1.4036 30.3179 1.24432 29.37 1.18785 28.8735C1.13138 28.377 1.05515 27.4292 1.01853 26.7672C0.980621 26.0819 1.00249 24.9156 1.06939 24.059C1.13388 23.2315 1.29557 21.964 1.42867 21.2423C1.56167 20.5207 1.82607 19.3923 2.01624 18.7348C2.20642 18.0773 2.57101 17.0203 2.82658 16.3859C3.08215 15.7515 3.54054 14.7585 3.84525 14.1793C4.14997 13.6 4.77445 12.5619 5.23283 11.8723C5.69122 11.1827 6.49193 10.122 7.0122 9.5152C7.53236 8.90837 8.38373 8.01137 8.9041 7.52189C9.42447 7.03242 10.3693 6.24093 11.0037 5.76309C11.6381 5.28535 12.5409 4.66398 13.0098 4.38233C13.4787 4.10068 14.3255 3.63889 14.8916 3.35614C15.4577 3.07339 16.2702 2.70327 16.6971 2.53366C17.124 2.36395 17.8117 2.1145 18.2255 1.97919C18.6392 1.84388 19.4291 1.6186 19.9808 1.47848C20.5324 1.33846 21.5706 1.13735 22.2877 1.03153C23.0049 0.925815 24.2913 0.810968 25.1463 0.776263C26.0727 0.73875 27.228 0.760617 28.005 0.830427C28.7221 0.894821 29.7151 1.01539 30.2116 1.09834C30.7081 1.18129 31.7103 1.40446 32.4387 1.59443C33.1671 1.7843 33.9833 2.02332 34.2523 2.12553L34.7416 2.31149ZM29.1083 7.02108C29.6048 7.10122 30.4398 7.28207 30.9639 7.42289C31.488 7.56372 32.3681 7.8574 32.9198 8.07556C33.4714 8.29372 34.3459 8.69804 34.8629 8.97397C35.3801 9.2499 36.1325 9.69785 36.5349 9.96947C36.9374 10.241 37.5524 10.6965 37.9017 10.9815C38.2509 11.2665 38.8639 11.8194 39.2639 12.2101C39.6639 12.6008 39.9911 12.9586 39.9911 13.0051C39.9911 13.0517 35.3394 19.3202 29.654 26.9353C23.9686 34.5503 19.3434 40.8073 19.3757 40.8396C19.4079 40.8719 23.7076 38.7497 28.9305 36.1238L38.4268 31.3492L38.7512 30.5126C38.9297 30.0524 39.1034 29.5166 39.1373 29.3217L39.1989 28.9675L42.9555 27.09C45.0215 26.0573 46.7344 25.2125 46.7618 25.2125C46.7893 25.2125 46.8116 25.5011 46.8116 25.8538C46.8116 26.2066 46.7657 26.9626 46.7094 27.5339C46.6533 28.1052 46.5147 29.0671 46.4016 29.6715C46.2885 30.2759 46.0013 31.3591 45.7634 32.0788C45.5256 32.7984 45.2182 33.6354 45.0804 33.9388L44.83 34.4905L34.6621 39.571L24.4944 44.6515L23.7421 44.5569C23.3284 44.5048 22.5695 44.3748 22.0556 44.2678C21.5419 44.1609 20.6392 43.9125 20.0496 43.7159C19.4601 43.5192 18.4689 43.1143 17.847 42.816C17.2252 42.5177 16.3225 42.0169 15.841 41.7033C15.3596 41.3897 14.6948 40.926 14.3639 40.673C14.0329 40.42 13.3262 39.7916 12.7936 39.2767L11.8252 38.3403L13.4893 36.1145C14.4045 34.8903 19.0746 28.6369 23.8675 22.2182C28.6602 15.7994 32.5537 10.5199 32.5196 10.4858C32.4855 10.4517 28.2 12.5526 22.9961 15.1543L13.5346 19.8847L13.2146 20.7682C13.0387 21.2542 12.8701 21.7748 12.8399 21.9253C12.7906 22.1711 12.4049 22.3925 9.03921 24.1069C6.9791 25.1563 5.26232 26.0149 5.22421 26.0149C5.18619 26.0149 5.18329 25.3944 5.21799 24.6358C5.25259 23.8773 5.36995 22.7375 5.47888 22.1031C5.5877 21.4687 5.83365 20.408 6.02532 19.746C6.217 19.084 6.54108 18.1447 6.74549 17.6585L7.11721 16.7747L17.1097 11.7725L27.1022 6.77033L27.6539 6.82279C27.9573 6.85167 28.6118 6.94094 29.1083 7.02108ZM22.284 23.3068C26.6324 17.4867 30.3019 12.5782 30.4385 12.3989C30.575 12.2195 30.6475 12.0754 30.5997 12.0784C30.5517 12.0814 26.8114 13.937 22.2877 16.2019C17.7641 18.4667 14.0446 20.3369 14.0221 20.3579C13.9997 20.3789 13.8144 20.9043 13.6104 21.5254L13.2395 22.6548L10.1406 24.2245L7.04179 25.7943L7.07398 26.6318C7.09174 27.0924 7.17128 27.9207 7.25062 28.4723C7.33006 29.0239 7.53086 29.9842 7.69686 30.6061C7.86276 31.228 8.13709 32.0856 8.3064 32.5119C8.47571 32.9381 8.83148 33.719 9.09698 34.2474C9.36248 34.7757 9.75015 35.4753 9.95858 35.8021C10.1669 36.1288 10.5839 36.7245 10.8851 37.1257L11.4327 37.8553L12.9054 35.8719C13.7153 34.7811 17.9357 29.1268 22.284 23.3068ZM25.6395 6.796C25.6166 6.81757 22.3318 8.46754 18.3401 10.4626C11.881 13.6909 11.1082 14.0535 11.3167 13.7585C11.4455 13.5761 12.0258 12.9487 12.6063 12.3642C13.1868 11.7797 14.1186 10.9627 14.677 10.5486C15.2354 10.1346 16.1041 9.56004 16.6075 9.27197C17.1109 8.9839 17.9206 8.57567 18.4067 8.36483C18.8929 8.154 19.7167 7.84156 20.2375 7.67054C20.7583 7.49952 21.6284 7.26753 22.1712 7.15499C22.7139 7.04245 23.4812 6.91266 23.8763 6.86662C24.2714 6.82058 24.8392 6.77705 25.138 6.76993C25.4368 6.76271 25.6625 6.77454 25.6395 6.796ZM43.041 17.4287C42.7432 16.8162 42.1844 15.8458 41.7992 15.2722C41.414 14.6987 40.9512 14.0621 40.7706 13.8577L40.4424 13.4861L30.8504 26.3453C25.5747 33.4179 21.2731 39.2209 21.2909 39.2408C21.3089 39.2606 25.0708 37.3888 29.6509 35.0811L37.9782 30.8854L38.2187 30.2305C38.351 29.8703 38.5163 29.35 38.5859 29.0741L38.7126 28.5726L41.8642 26.9687L45.0157 25.3648L44.9525 24.5614C44.9177 24.1196 44.8234 23.3296 44.743 22.8059C44.6626 22.2822 44.5082 21.5066 44.4 21.0827C44.2916 20.6587 44.0635 19.9136 43.8927 19.4271C43.7221 18.9405 43.3388 18.0413 43.041 17.4287ZM40.8778 37.4745C40.6942 37.7089 40.1375 38.3239 39.6406 38.8411C39.1438 39.3582 38.4166 40.0442 38.0247 40.3653C37.6327 40.6863 36.9378 41.1996 36.4805 41.5056C36.0232 41.8117 35.1252 42.3286 34.485 42.6542C33.8448 42.9797 32.9148 43.3892 32.4183 43.5639C31.9218 43.7386 31.102 43.9893 30.5966 44.1208C30.0911 44.2523 29.1756 44.4299 28.562 44.5156C27.9484 44.6011 27.0981 44.6686 26.6725 44.6656L25.8986 44.6601L33.4714 40.8597C37.6365 38.7694 41.0819 37.0567 41.1279 37.0537C41.174 37.0507 41.0614 37.2401 40.8778 37.4745ZM31.3149 1.84579C30.7633 1.72693 29.8606 1.56384 29.3089 1.48339C28.7572 1.40285 27.516 1.3196 26.5506 1.29814C25.5852 1.27677 24.6147 1.27717 24.3941 1.29914C24.1734 1.32101 23.5641 1.38811 23.04 1.44809C22.5159 1.50817 21.5455 1.67006 20.8835 1.80797C20.2215 1.94589 19.0705 2.26104 18.3258 2.50828C17.581 2.75553 16.2805 3.29215 15.4358 3.70058C14.5909 4.10911 13.4418 4.74332 12.882 5.11012C12.3222 5.47693 11.5013 6.05166 11.0579 6.38727C10.6144 6.72298 9.69358 7.54155 9.01172 8.20625C8.32987 8.87106 7.42213 9.84881 6.99444 10.3791C6.56675 10.9093 5.92261 11.7895 5.56303 12.335C5.20345 12.8804 4.67987 13.7561 4.39942 14.281C4.11908 14.8057 3.68818 15.7162 3.44194 16.304C3.1956 16.8918 2.85176 17.8165 2.67773 18.3588C2.50371 18.9011 2.25486 19.8188 2.12467 20.398C1.99448 20.9772 1.82115 21.9477 1.73941 22.5545C1.65766 23.1613 1.56097 24.1769 1.52456 24.8113C1.48805 25.4457 1.50811 26.6192 1.56899 27.4192C1.62988 28.2191 1.74854 29.2798 1.83259 29.7763C1.91664 30.2728 2.13951 31.2703 2.32788 31.9929C2.51635 32.7156 2.87343 33.8321 3.12147 34.4739C3.36952 35.1157 3.86592 36.2171 4.2246 36.9213C4.58318 37.6255 5.17647 38.653 5.54297 39.2047C5.90948 39.7563 6.55362 40.6365 6.97428 41.1606C7.39505 41.6846 8.21703 42.5874 8.80099 43.1666C9.38485 43.7459 10.3386 44.591 10.9203 45.0448C11.502 45.4985 12.4173 46.146 12.9543 46.4834C13.4912 46.8209 14.3989 47.3372 14.9712 47.6306C15.5436 47.924 16.4821 48.3458 17.0569 48.5678C17.6317 48.7899 18.5776 49.11 19.1589 49.2793C19.7402 49.4487 20.6369 49.6729 21.1515 49.7776C21.6661 49.8822 22.5159 50.0268 23.04 50.0988C23.5712 50.1718 24.9028 50.2292 26.0491 50.2285C27.4681 50.2275 28.4782 50.173 29.3089 50.0527C29.9709 49.9567 31.009 49.7611 31.6158 49.6181C32.2227 49.475 33.2178 49.1866 33.8273 48.9771C34.4367 48.7676 35.3532 48.4149 35.8639 48.1935C36.3747 47.9719 37.185 47.577 37.6647 47.3157C38.1443 47.0545 39.0325 46.5059 39.6385 46.0965C40.2445 45.6873 40.9667 45.1668 41.2434 44.9401C41.52 44.7133 42.1391 44.1735 42.619 43.7406C43.0989 43.3077 43.8708 42.5163 44.3343 41.9818C44.7977 41.4473 45.4592 40.6275 45.8041 40.1597C46.1491 39.692 46.7527 38.7668 47.1452 38.1035C47.5378 37.4403 48.0709 36.423 48.3299 35.8428C48.5889 35.2627 48.979 34.2697 49.1968 33.6362C49.4146 33.0027 49.7098 31.9879 49.8527 31.3811C49.9957 30.7743 50.1923 29.7587 50.2895 29.1243C50.4165 28.2966 50.4669 27.3619 50.4686 25.8143C50.4698 24.5583 50.4152 23.2599 50.3379 22.7049C50.2647 22.1809 50.1151 21.3233 50.0052 20.7992C49.8952 20.2751 49.6733 19.3879 49.5119 18.8276C49.3505 18.2672 49.0216 17.3193 48.7812 16.7212C48.5406 16.123 48.1308 15.2097 47.8704 14.6915C47.61 14.1733 47.1438 13.3401 46.8345 12.8399C46.5251 12.3397 45.9312 11.4773 45.5148 10.9234C45.0984 10.3696 44.2167 9.35963 43.5554 8.67908C42.8941 7.99853 41.9458 7.11256 41.448 6.71025C40.9501 6.30793 40.0914 5.67653 39.5397 5.30722C38.9881 4.93791 37.8301 4.28363 36.9664 3.85334C35.9935 3.36868 34.8104 2.879 33.857 2.56646C33.0105 2.28892 31.8666 1.96465 31.3149 1.84579ZM23.692 6.37223C23.2506 6.42218 22.3758 6.57785 21.7478 6.71827C21.1198 6.85869 20.1652 7.127 19.6264 7.31457C19.0876 7.50203 18.3032 7.81207 17.8834 8.00344C17.4635 8.19472 16.6916 8.60345 16.1679 8.91158C15.6443 9.21981 14.7682 9.80918 14.2209 10.2214C13.6737 10.6337 12.8275 11.367 12.3406 11.8511C11.8535 12.3352 11.1683 13.0882 10.8178 13.5243C10.4673 13.9604 10.1568 14.3792 10.1278 14.4548C10.0987 14.5305 9.30972 14.9756 8.3744 15.4438L6.67378 16.2952L6.36856 16.9675C6.20065 17.3372 5.88851 18.1714 5.67487 18.8213C5.46122 19.4712 5.17556 20.5545 5.04015 21.2286C4.90475 21.9026 4.74727 22.9958 4.6902 23.6578C4.63313 24.3198 4.58599 25.3241 4.58538 25.8895C4.58478 26.5237 4.6237 26.9176 4.68689 26.9176C4.74326 26.9176 5.1542 26.7343 5.60004 26.5101C6.04579 26.2859 6.43566 26.1276 6.46625 26.1582C6.49684 26.1887 6.56114 26.722 6.60918 27.343C6.65733 27.9642 6.80628 29.015 6.94038 29.6781C7.07438 30.3413 7.37018 31.4245 7.59756 32.0853C7.82505 32.7462 8.32455 33.8962 8.70761 34.6409C9.09066 35.3857 9.69779 36.4059 10.0569 36.9082C10.4159 37.4106 11.0805 38.2427 11.5337 38.7575C11.987 39.2723 12.8092 40.0731 13.3608 40.5372C13.9125 41.0013 14.7309 41.6254 15.1794 41.9241C15.628 42.2228 16.4178 42.6897 16.9347 42.9617C17.4516 43.2337 18.3407 43.6411 18.9108 43.867C19.4808 44.0929 20.4542 44.4085 21.0741 44.5682C21.6938 44.728 22.7073 44.9294 23.3261 45.0158C23.9646 45.1047 25.1328 45.1719 26.0274 45.1708C26.8944 45.1698 28.0777 45.1016 28.6568 45.0193C29.2361 44.937 30.1716 44.7584 30.7359 44.6224C31.3002 44.4864 32.2029 44.2104 32.742 44.0089C33.2812 43.8075 34.1961 43.4049 34.7754 43.1144C35.3546 42.8238 36.2348 42.3186 36.7313 41.9918C37.2278 41.6651 38.0415 41.0556 38.5397 40.6377C39.0378 40.2197 39.7481 39.5568 40.1181 39.1646C40.4881 38.7725 41.1411 37.9951 41.5694 37.4372L42.3482 36.423L43.8297 35.6808L45.3111 34.9386L45.5663 34.3635C45.7067 34.0471 45.9771 33.3422 46.1674 32.797C46.3577 32.2517 46.6069 31.4393 46.7215 30.9915C46.8359 30.5438 46.9916 29.8255 47.0673 29.3954C47.1431 28.9653 47.2579 27.9442 47.3224 27.1264C47.3868 26.3085 47.4075 25.3402 47.3684 24.9746C47.3292 24.609 47.2547 24.3098 47.2026 24.3098C47.1507 24.3098 46.7512 24.4892 46.3148 24.7086L45.5215 25.1075L45.4626 24.5331C45.4301 24.2172 45.3545 23.5525 45.2947 23.056C45.2348 22.5595 45.0374 21.5607 44.856 20.8363C44.6746 20.112 44.2835 18.9385 43.987 18.2285C43.6905 17.5185 43.161 16.4562 42.8104 15.8678C42.4597 15.2795 41.8742 14.3993 41.509 13.9119C41.1439 13.4246 40.3708 12.5517 39.7912 11.9721C39.2115 11.3926 38.3085 10.5982 37.7844 10.2069C37.2604 9.8155 36.4439 9.26334 35.9702 8.97979C35.4964 8.69623 34.7291 8.2871 34.265 8.07055C33.8009 7.85399 32.9646 7.51858 32.4065 7.3252C31.8484 7.13182 30.878 6.8596 30.25 6.72028C29.622 6.58106 28.67 6.41947 28.1343 6.36119C27.5986 6.30302 26.5605 6.26129 25.8273 6.26852C25.0942 6.27574 24.1333 6.32238 23.692 6.37223ZM10.4486 45.3676C10.8879 45.7148 11.6326 46.257 12.1035 46.5725C12.5744 46.8879 13.4298 47.4056 14.0045 47.7227C14.5792 48.0399 15.3014 48.4125 15.6093 48.5506L16.1693 48.802L14.8654 49.4538L13.5614 50.1055L12.7089 49.6356C12.24 49.3771 11.3592 48.8365 10.7517 48.4341C10.1441 48.0317 9.28023 47.4062 8.83188 47.0442C8.38353 46.6822 7.73869 46.1287 7.39896 45.8142C7.05924 45.4996 6.80186 45.1889 6.82694 45.1236C6.85201 45.0582 7.15633 44.6145 7.50318 44.1374L8.13398 43.27L8.89176 44.0032C9.30862 44.4064 10.0091 45.0205 10.4486 45.3676ZM41.4956 3.12364C40.9715 2.76415 40.066 2.19333 39.4833 1.85512C38.9005 1.517 38.3589 1.24257 38.2796 1.24548C38.2004 1.24839 37.5567 1.54368 36.8494 1.90186L35.5633 2.55292L37.1503 3.34089C38.0232 3.7743 39.2789 4.49096 39.9409 4.93359C40.6029 5.37613 41.5734 6.0982 42.0974 6.53813C42.6215 6.97805 43.2042 7.49892 43.3922 7.69552L43.7341 8.05309L44.4203 7.13683C44.7977 6.63291 45.1065 6.18757 45.1065 6.14715C45.1065 6.10673 44.7342 5.74022 44.279 5.33269C43.8238 4.92517 43.2258 4.40841 42.95 4.18454C42.6742 3.96056 42.0197 3.48312 41.4956 3.12364Z"/>
</mask>
<path fill-rule="evenodd" clip-rule="evenodd" d="M34.7416 2.31149L36.4887 1.43104C37.641 0.850387 38.3041 0.569842 38.4364 0.606954C38.5467 0.637947 39.1109 0.934943 39.6902 1.26694C40.2694 1.59894 41.0819 2.09765 41.4956 2.37518C41.9094 2.65282 42.5905 3.13949 43.0093 3.45664C43.428 3.7739 44.2518 4.46789 44.8398 4.99889C45.4279 5.52979 45.9089 6.01455 45.9089 6.07593C45.9089 6.13742 45.5227 6.70192 45.0506 7.33042L44.1923 8.47316L44.602 8.94398C44.8273 9.20296 45.2982 9.77599 45.6485 10.2173C45.9988 10.6586 46.5866 11.4711 46.9546 12.0228C47.3226 12.5744 47.9806 13.748 48.4169 14.6306C48.8531 15.5133 49.3956 16.7771 49.6224 17.4391C49.8492 18.1011 50.1645 19.1843 50.323 19.8463C50.4816 20.5083 50.6914 21.569 50.7893 22.2034C50.9211 23.0573 50.9682 23.9693 50.9704 25.714C50.9723 27.1893 50.923 28.4088 50.8386 28.9738C50.7645 29.4703 50.595 30.4003 50.4622 31.0406C50.3293 31.6808 50.0583 32.7172 49.8599 33.3436C49.6615 33.9701 49.2759 35.0035 49.0029 35.64C48.7299 36.2766 48.2565 37.2454 47.9508 37.7929C47.6451 38.3404 47.1337 39.177 46.8143 39.652C46.495 40.1271 45.9503 40.8752 45.6042 41.3145C45.2579 41.7539 44.4514 42.6478 43.8119 43.3009C43.1724 43.9541 42.2429 44.8158 41.7464 45.2158C41.2499 45.6159 40.4374 46.2148 39.9409 46.5467C39.4444 46.8786 38.6679 47.3625 38.2152 47.6219C37.7626 47.8814 36.8824 48.3224 36.2593 48.602C35.6363 48.8815 34.5397 49.3034 33.8225 49.5395C33.1053 49.7756 31.9544 50.0841 31.2648 50.225C30.5752 50.3659 29.5822 50.5383 29.0581 50.608C28.5158 50.6803 27.1545 50.7318 25.8986 50.7277C24.3959 50.7228 23.3462 50.668 22.6082 50.5561C22.0121 50.4657 21.017 50.2779 20.3968 50.1388C19.7766 49.9997 18.7523 49.7119 18.1205 49.4994L16.9717 49.1128L15.2835 49.9559L13.5954 50.7988L12.6255 50.284C12.0921 50.0008 11.0915 49.3929 10.4019 48.9329C9.71233 48.473 8.83218 47.8426 8.44602 47.5321C8.05985 47.2216 7.34901 46.6056 6.86626 46.1631C6.3835 45.7208 5.98861 45.3096 5.98861 45.2494C5.98861 45.1892 6.37217 44.6293 6.84098 44.0051L7.69345 42.8703L6.82945 41.8399C6.35431 41.2732 5.60496 40.2679 5.16413 39.6059C4.7234 38.9439 4.00714 37.6801 3.57253 36.7974C3.10733 35.8525 2.57894 34.5739 2.28756 33.688C2.01544 32.8605 1.67973 31.6419 1.54161 30.9799C1.4036 30.3179 1.24432 29.37 1.18785 28.8735C1.13138 28.377 1.05515 27.4292 1.01853 26.7672C0.980621 26.0819 1.00249 24.9156 1.06939 24.059C1.13388 23.2315 1.29557 21.964 1.42867 21.2423C1.56167 20.5207 1.82607 19.3923 2.01624 18.7348C2.20642 18.0773 2.57101 17.0203 2.82658 16.3859C3.08215 15.7515 3.54054 14.7585 3.84525 14.1793C4.14997 13.6 4.77445 12.5619 5.23283 11.8723C5.69122 11.1827 6.49193 10.122 7.0122 9.5152C7.53236 8.90837 8.38373 8.01137 8.9041 7.52189C9.42447 7.03242 10.3693 6.24093 11.0037 5.76309C11.6381 5.28535 12.5409 4.66398 13.0098 4.38233C13.4787 4.10068 14.3255 3.63889 14.8916 3.35614C15.4577 3.07339 16.2702 2.70327 16.6971 2.53366C17.124 2.36395 17.8117 2.1145 18.2255 1.97919C18.6392 1.84388 19.4291 1.6186 19.9808 1.47848C20.5324 1.33846 21.5706 1.13735 22.2877 1.03153C23.0049 0.925815 24.2913 0.810968 25.1463 0.776263C26.0727 0.73875 27.228 0.760617 28.005 0.830427C28.7221 0.894821 29.7151 1.01539 30.2116 1.09834C30.7081 1.18129 31.7103 1.40446 32.4387 1.59443C33.1671 1.7843 33.9833 2.02332 34.2523 2.12553L34.7416 2.31149ZM29.1083 7.02108C29.6048 7.10122 30.4398 7.28207 30.9639 7.42289C31.488 7.56372 32.3681 7.8574 32.9198 8.07556C33.4714 8.29372 34.3459 8.69804 34.8629 8.97397C35.3801 9.2499 36.1325 9.69785 36.5349 9.96947C36.9374 10.241 37.5524 10.6965 37.9017 10.9815C38.2509 11.2665 38.8639 11.8194 39.2639 12.2101C39.6639 12.6008 39.9911 12.9586 39.9911 13.0051C39.9911 13.0517 35.3394 19.3202 29.654 26.9353C23.9686 34.5503 19.3434 40.8073 19.3757 40.8396C19.4079 40.8719 23.7076 38.7497 28.9305 36.1238L38.4268 31.3492L38.7512 30.5126C38.9297 30.0524 39.1034 29.5166 39.1373 29.3217L39.1989 28.9675L42.9555 27.09C45.0215 26.0573 46.7344 25.2125 46.7618 25.2125C46.7893 25.2125 46.8116 25.5011 46.8116 25.8538C46.8116 26.2066 46.7657 26.9626 46.7094 27.5339C46.6533 28.1052 46.5147 29.0671 46.4016 29.6715C46.2885 30.2759 46.0013 31.3591 45.7634 32.0788C45.5256 32.7984 45.2182 33.6354 45.0804 33.9388L44.83 34.4905L34.6621 39.571L24.4944 44.6515L23.7421 44.5569C23.3284 44.5048 22.5695 44.3748 22.0556 44.2678C21.5419 44.1609 20.6392 43.9125 20.0496 43.7159C19.4601 43.5192 18.4689 43.1143 17.847 42.816C17.2252 42.5177 16.3225 42.0169 15.841 41.7033C15.3596 41.3897 14.6948 40.926 14.3639 40.673C14.0329 40.42 13.3262 39.7916 12.7936 39.2767L11.8252 38.3403L13.4893 36.1145C14.4045 34.8903 19.0746 28.6369 23.8675 22.2182C28.6602 15.7994 32.5537 10.5199 32.5196 10.4858C32.4855 10.4517 28.2 12.5526 22.9961 15.1543L13.5346 19.8847L13.2146 20.7682C13.0387 21.2542 12.8701 21.7748 12.8399 21.9253C12.7906 22.1711 12.4049 22.3925 9.03921 24.1069C6.9791 25.1563 5.26232 26.0149 5.22421 26.0149C5.18619 26.0149 5.18329 25.3944 5.21799 24.6358C5.25259 23.8773 5.36995 22.7375 5.47888 22.1031C5.5877 21.4687 5.83365 20.408 6.02532 19.746C6.217 19.084 6.54108 18.1447 6.74549 17.6585L7.11721 16.7747L17.1097 11.7725L27.1022 6.77033L27.6539 6.82279C27.9573 6.85167 28.6118 6.94094 29.1083 7.02108ZM22.284 23.3068C26.6324 17.4867 30.3019 12.5782 30.4385 12.3989C30.575 12.2195 30.6475 12.0754 30.5997 12.0784C30.5517 12.0814 26.8114 13.937 22.2877 16.2019C17.7641 18.4667 14.0446 20.3369 14.0221 20.3579C13.9997 20.3789 13.8144 20.9043 13.6104 21.5254L13.2395 22.6548L10.1406 24.2245L7.04179 25.7943L7.07398 26.6318C7.09174 27.0924 7.17128 27.9207 7.25062 28.4723C7.33006 29.0239 7.53086 29.9842 7.69686 30.6061C7.86276 31.228 8.13709 32.0856 8.3064 32.5119C8.47571 32.9381 8.83148 33.719 9.09698 34.2474C9.36248 34.7757 9.75015 35.4753 9.95858 35.8021C10.1669 36.1288 10.5839 36.7245 10.8851 37.1257L11.4327 37.8553L12.9054 35.8719C13.7153 34.7811 17.9357 29.1268 22.284 23.3068ZM25.6395 6.796C25.6166 6.81757 22.3318 8.46754 18.3401 10.4626C11.881 13.6909 11.1082 14.0535 11.3167 13.7585C11.4455 13.5761 12.0258 12.9487 12.6063 12.3642C13.1868 11.7797 14.1186 10.9627 14.677 10.5486C15.2354 10.1346 16.1041 9.56004 16.6075 9.27197C17.1109 8.9839 17.9206 8.57567 18.4067 8.36483C18.8929 8.154 19.7167 7.84156 20.2375 7.67054C20.7583 7.49952 21.6284 7.26753 22.1712 7.15499C22.7139 7.04245 23.4812 6.91266 23.8763 6.86662C24.2714 6.82058 24.8392 6.77705 25.138 6.76993C25.4368 6.76271 25.6625 6.77454 25.6395 6.796ZM43.041 17.4287C42.7432 16.8162 42.1844 15.8458 41.7992 15.2722C41.414 14.6987 40.9512 14.0621 40.7706 13.8577L40.4424 13.4861L30.8504 26.3453C25.5747 33.4179 21.2731 39.2209 21.2909 39.2408C21.3089 39.2606 25.0708 37.3888 29.6509 35.0811L37.9782 30.8854L38.2187 30.2305C38.351 29.8703 38.5163 29.35 38.5859 29.0741L38.7126 28.5726L41.8642 26.9687L45.0157 25.3648L44.9525 24.5614C44.9177 24.1196 44.8234 23.3296 44.743 22.8059C44.6626 22.2822 44.5082 21.5066 44.4 21.0827C44.2916 20.6587 44.0635 19.9136 43.8927 19.4271C43.7221 18.9405 43.3388 18.0413 43.041 17.4287ZM40.8778 37.4745C40.6942 37.7089 40.1375 38.3239 39.6406 38.8411C39.1438 39.3582 38.4166 40.0442 38.0247 40.3653C37.6327 40.6863 36.9378 41.1996 36.4805 41.5056C36.0232 41.8117 35.1252 42.3286 34.485 42.6542C33.8448 42.9797 32.9148 43.3892 32.4183 43.5639C31.9218 43.7386 31.102 43.9893 30.5966 44.1208C30.0911 44.2523 29.1756 44.4299 28.562 44.5156C27.9484 44.6011 27.0981 44.6686 26.6725 44.6656L25.8986 44.6601L33.4714 40.8597C37.6365 38.7694 41.0819 37.0567 41.1279 37.0537C41.174 37.0507 41.0614 37.2401 40.8778 37.4745ZM31.3149 1.84579C30.7633 1.72693 29.8606 1.56384 29.3089 1.48339C28.7572 1.40285 27.516 1.3196 26.5506 1.29814C25.5852 1.27677 24.6147 1.27717 24.3941 1.29914C24.1734 1.32101 23.5641 1.38811 23.04 1.44809C22.5159 1.50817 21.5455 1.67006 20.8835 1.80797C20.2215 1.94589 19.0705 2.26104 18.3258 2.50828C17.581 2.75553 16.2805 3.29215 15.4358 3.70058C14.5909 4.10911 13.4418 4.74332 12.882 5.11012C12.3222 5.47693 11.5013 6.05166 11.0579 6.38727C10.6144 6.72298 9.69358 7.54155 9.01172 8.20625C8.32987 8.87106 7.42213 9.84881 6.99444 10.3791C6.56675 10.9093 5.92261 11.7895 5.56303 12.335C5.20345 12.8804 4.67987 13.7561 4.39942 14.281C4.11908 14.8057 3.68818 15.7162 3.44194 16.304C3.1956 16.8918 2.85176 17.8165 2.67773 18.3588C2.50371 18.9011 2.25486 19.8188 2.12467 20.398C1.99448 20.9772 1.82115 21.9477 1.73941 22.5545C1.65766 23.1613 1.56097 24.1769 1.52456 24.8113C1.48805 25.4457 1.50811 26.6192 1.56899 27.4192C1.62988 28.2191 1.74854 29.2798 1.83259 29.7763C1.91664 30.2728 2.13951 31.2703 2.32788 31.9929C2.51635 32.7156 2.87343 33.8321 3.12147 34.4739C3.36952 35.1157 3.86592 36.2171 4.2246 36.9213C4.58318 37.6255 5.17647 38.653 5.54297 39.2047C5.90948 39.7563 6.55362 40.6365 6.97428 41.1606C7.39505 41.6846 8.21703 42.5874 8.80099 43.1666C9.38485 43.7459 10.3386 44.591 10.9203 45.0448C11.502 45.4985 12.4173 46.146 12.9543 46.4834C13.4912 46.8209 14.3989 47.3372 14.9712 47.6306C15.5436 47.924 16.4821 48.3458 17.0569 48.5678C17.6317 48.7899 18.5776 49.11 19.1589 49.2793C19.7402 49.4487 20.6369 49.6729 21.1515 49.7776C21.6661 49.8822 22.5159 50.0268 23.04 50.0988C23.5712 50.1718 24.9028 50.2292 26.0491 50.2285C27.4681 50.2275 28.4782 50.173 29.3089 50.0527C29.9709 49.9567 31.009 49.7611 31.6158 49.6181C32.2227 49.475 33.2178 49.1866 33.8273 48.9771C34.4367 48.7676 35.3532 48.4149 35.8639 48.1935C36.3747 47.9719 37.185 47.577 37.6647 47.3157C38.1443 47.0545 39.0325 46.5059 39.6385 46.0965C40.2445 45.6873 40.9667 45.1668 41.2434 44.9401C41.52 44.7133 42.1391 44.1735 42.619 43.7406C43.0989 43.3077 43.8708 42.5163 44.3343 41.9818C44.7977 41.4473 45.4592 40.6275 45.8041 40.1597C46.1491 39.692 46.7527 38.7668 47.1452 38.1035C47.5378 37.4403 48.0709 36.423 48.3299 35.8428C48.5889 35.2627 48.979 34.2697 49.1968 33.6362C49.4146 33.0027 49.7098 31.9879 49.8527 31.3811C49.9957 30.7743 50.1923 29.7587 50.2895 29.1243C50.4165 28.2966 50.4669 27.3619 50.4686 25.8143C50.4698 24.5583 50.4152 23.2599 50.3379 22.7049C50.2647 22.1809 50.1151 21.3233 50.0052 20.7992C49.8952 20.2751 49.6733 19.3879 49.5119 18.8276C49.3505 18.2672 49.0216 17.3193 48.7812 16.7212C48.5406 16.123 48.1308 15.2097 47.8704 14.6915C47.61 14.1733 47.1438 13.3401 46.8345 12.8399C46.5251 12.3397 45.9312 11.4773 45.5148 10.9234C45.0984 10.3696 44.2167 9.35963 43.5554 8.67908C42.8941 7.99853 41.9458 7.11256 41.448 6.71025C40.9501 6.30793 40.0914 5.67653 39.5397 5.30722C38.9881 4.93791 37.8301 4.28363 36.9664 3.85334C35.9935 3.36868 34.8104 2.879 33.857 2.56646C33.0105 2.28892 31.8666 1.96465 31.3149 1.84579ZM23.692 6.37223C23.2506 6.42218 22.3758 6.57785 21.7478 6.71827C21.1198 6.85869 20.1652 7.127 19.6264 7.31457C19.0876 7.50203 18.3032 7.81207 17.8834 8.00344C17.4635 8.19472 16.6916 8.60345 16.1679 8.91158C15.6443 9.21981 14.7682 9.80918 14.2209 10.2214C13.6737 10.6337 12.8275 11.367 12.3406 11.8511C11.8535 12.3352 11.1683 13.0882 10.8178 13.5243C10.4673 13.9604 10.1568 14.3792 10.1278 14.4548C10.0987 14.5305 9.30972 14.9756 8.3744 15.4438L6.67378 16.2952L6.36856 16.9675C6.20065 17.3372 5.88851 18.1714 5.67487 18.8213C5.46122 19.4712 5.17556 20.5545 5.04015 21.2286C4.90475 21.9026 4.74727 22.9958 4.6902 23.6578C4.63313 24.3198 4.58599 25.3241 4.58538 25.8895C4.58478 26.5237 4.6237 26.9176 4.68689 26.9176C4.74326 26.9176 5.1542 26.7343 5.60004 26.5101C6.04579 26.2859 6.43566 26.1276 6.46625 26.1582C6.49684 26.1887 6.56114 26.722 6.60918 27.343C6.65733 27.9642 6.80628 29.015 6.94038 29.6781C7.07438 30.3413 7.37018 31.4245 7.59756 32.0853C7.82505 32.7462 8.32455 33.8962 8.70761 34.6409C9.09066 35.3857 9.69779 36.4059 10.0569 36.9082C10.4159 37.4106 11.0805 38.2427 11.5337 38.7575C11.987 39.2723 12.8092 40.0731 13.3608 40.5372C13.9125 41.0013 14.7309 41.6254 15.1794 41.9241C15.628 42.2228 16.4178 42.6897 16.9347 42.9617C17.4516 43.2337 18.3407 43.6411 18.9108 43.867C19.4808 44.0929 20.4542 44.4085 21.0741 44.5682C21.6938 44.728 22.7073 44.9294 23.3261 45.0158C23.9646 45.1047 25.1328 45.1719 26.0274 45.1708C26.8944 45.1698 28.0777 45.1016 28.6568 45.0193C29.2361 44.937 30.1716 44.7584 30.7359 44.6224C31.3002 44.4864 32.2029 44.2104 32.742 44.0089C33.2812 43.8075 34.1961 43.4049 34.7754 43.1144C35.3546 42.8238 36.2348 42.3186 36.7313 41.9918C37.2278 41.6651 38.0415 41.0556 38.5397 40.6377C39.0378 40.2197 39.7481 39.5568 40.1181 39.1646C40.4881 38.7725 41.1411 37.9951 41.5694 37.4372L42.3482 36.423L43.8297 35.6808L45.3111 34.9386L45.5663 34.3635C45.7067 34.0471 45.9771 33.3422 46.1674 32.797C46.3577 32.2517 46.6069 31.4393 46.7215 30.9915C46.8359 30.5438 46.9916 29.8255 47.0673 29.3954C47.1431 28.9653 47.2579 27.9442 47.3224 27.1264C47.3868 26.3085 47.4075 25.3402 47.3684 24.9746C47.3292 24.609 47.2547 24.3098 47.2026 24.3098C47.1507 24.3098 46.7512 24.4892 46.3148 24.7086L45.5215 25.1075L45.4626 24.5331C45.4301 24.2172 45.3545 23.5525 45.2947 23.056C45.2348 22.5595 45.0374 21.5607 44.856 20.8363C44.6746 20.112 44.2835 18.9385 43.987 18.2285C43.6905 17.5185 43.161 16.4562 42.8104 15.8678C42.4597 15.2795 41.8742 14.3993 41.509 13.9119C41.1439 13.4246 40.3708 12.5517 39.7912 11.9721C39.2115 11.3926 38.3085 10.5982 37.7844 10.2069C37.2604 9.8155 36.4439 9.26334 35.9702 8.97979C35.4964 8.69623 34.7291 8.2871 34.265 8.07055C33.8009 7.85399 32.9646 7.51858 32.4065 7.3252C31.8484 7.13182 30.878 6.8596 30.25 6.72028C29.622 6.58106 28.67 6.41947 28.1343 6.36119C27.5986 6.30302 26.5605 6.26129 25.8273 6.26852C25.0942 6.27574 24.1333 6.32238 23.692 6.37223ZM10.4486 45.3676C10.8879 45.7148 11.6326 46.257 12.1035 46.5725C12.5744 46.8879 13.4298 47.4056 14.0045 47.7227C14.5792 48.0399 15.3014 48.4125 15.6093 48.5506L16.1693 48.802L14.8654 49.4538L13.5614 50.1055L12.7089 49.6356C12.24 49.3771 11.3592 48.8365 10.7517 48.4341C10.1441 48.0317 9.28023 47.4062 8.83188 47.0442C8.38353 46.6822 7.73869 46.1287 7.39896 45.8142C7.05924 45.4996 6.80186 45.1889 6.82694 45.1236C6.85201 45.0582 7.15633 44.6145 7.50318 44.1374L8.13398 43.27L8.89176 44.0032C9.30862 44.4064 10.0091 45.0205 10.4486 45.3676ZM41.4956 3.12364C40.9715 2.76415 40.066 2.19333 39.4833 1.85512C38.9005 1.517 38.3589 1.24257 38.2796 1.24548C38.2004 1.24839 37.5567 1.54368 36.8494 1.90186L35.5633 2.55292L37.1503 3.34089C38.0232 3.7743 39.2789 4.49096 39.9409 4.93359C40.6029 5.37613 41.5734 6.0982 42.0974 6.53813C42.6215 6.97805 43.2042 7.49892 43.3922 7.69552L43.7341 8.05309L44.4203 7.13683C44.7977 6.63291 45.1065 6.18757 45.1065 6.14715C45.1065 6.10673 44.7342 5.74022 44.279 5.33269C43.8238 4.92517 43.2258 4.40841 42.95 4.18454C42.6742 3.96056 42.0197 3.48312 41.4956 3.12364Z" fill="white"/>
<path fill-rule="evenodd" clip-rule="evenodd" d="M34.7416 2.31149L36.4887 1.43104C37.641 0.850387 38.3041 0.569842 38.4364 0.606954C38.5467 0.637947 39.1109 0.934943 39.6902 1.26694C40.2694 1.59894 41.0819 2.09765 41.4956 2.37518C41.9094 2.65282 42.5905 3.13949 43.0093 3.45664C43.428 3.7739 44.2518 4.46789 44.8398 4.99889C45.4279 5.52979 45.9089 6.01455 45.9089 6.07593C45.9089 6.13742 45.5227 6.70192 45.0506 7.33042L44.1923 8.47316L44.602 8.94398C44.8273 9.20296 45.2982 9.77599 45.6485 10.2173C45.9988 10.6586 46.5866 11.4711 46.9546 12.0228C47.3226 12.5744 47.9806 13.748 48.4169 14.6306C48.8531 15.5133 49.3956 16.7771 49.6224 17.4391C49.8492 18.1011 50.1645 19.1843 50.323 19.8463C50.4816 20.5083 50.6914 21.569 50.7893 22.2034C50.9211 23.0573 50.9682 23.9693 50.9704 25.714C50.9723 27.1893 50.923 28.4088 50.8386 28.9738C50.7645 29.4703 50.595 30.4003 50.4622 31.0406C50.3293 31.6808 50.0583 32.7172 49.8599 33.3436C49.6615 33.9701 49.2759 35.0035 49.0029 35.64C48.7299 36.2766 48.2565 37.2454 47.9508 37.7929C47.6451 38.3404 47.1337 39.177 46.8143 39.652C46.495 40.1271 45.9503 40.8752 45.6042 41.3145C45.2579 41.7539 44.4514 42.6478 43.8119 43.3009C43.1724 43.9541 42.2429 44.8158 41.7464 45.2158C41.2499 45.6159 40.4374 46.2148 39.9409 46.5467C39.4444 46.8786 38.6679 47.3625 38.2152 47.6219C37.7626 47.8814 36.8824 48.3224 36.2593 48.602C35.6363 48.8815 34.5397 49.3034 33.8225 49.5395C33.1053 49.7756 31.9544 50.0841 31.2648 50.225C30.5752 50.3659 29.5822 50.5383 29.0581 50.608C28.5158 50.6803 27.1545 50.7318 25.8986 50.7277C24.3959 50.7228 23.3462 50.668 22.6082 50.5561C22.0121 50.4657 21.017 50.2779 20.3968 50.1388C19.7766 49.9997 18.7523 49.7119 18.1205 49.4994L16.9717 49.1128L15.2835 49.9559L13.5954 50.7988L12.6255 50.284C12.0921 50.0008 11.0915 49.3929 10.4019 48.9329C9.71233 48.473 8.83218 47.8426 8.44602 47.5321C8.05985 47.2216 7.34901 46.6056 6.86626 46.1631C6.3835 45.7208 5.98861 45.3096 5.98861 45.2494C5.98861 45.1892 6.37217 44.6293 6.84098 44.0051L7.69345 42.8703L6.82945 41.8399C6.35431 41.2732 5.60496 40.2679 5.16413 39.6059C4.7234 38.9439 4.00714 37.6801 3.57253 36.7974C3.10733 35.8525 2.57894 34.5739 2.28756 33.688C2.01544 32.8605 1.67973 31.6419 1.54161 30.9799C1.4036 30.3179 1.24432 29.37 1.18785 28.8735C1.13138 28.377 1.05515 27.4292 1.01853 26.7672C0.980621 26.0819 1.00249 24.9156 1.06939 24.059C1.13388 23.2315 1.29557 21.964 1.42867 21.2423C1.56167 20.5207 1.82607 19.3923 2.01624 18.7348C2.20642 18.0773 2.57101 17.0203 2.82658 16.3859C3.08215 15.7515 3.54054 14.7585 3.84525 14.1793C4.14997 13.6 4.77445 12.5619 5.23283 11.8723C5.69122 11.1827 6.49193 10.122 7.0122 9.5152C7.53236 8.90837 8.38373 8.01137 8.9041 7.52189C9.42447 7.03242 10.3693 6.24093 11.0037 5.76309C11.6381 5.28535 12.5409 4.66398 13.0098 4.38233C13.4787 4.10068 14.3255 3.63889 14.8916 3.35614C15.4577 3.07339 16.2702 2.70327 16.6971 2.53366C17.124 2.36395 17.8117 2.1145 18.2255 1.97919C18.6392 1.84388 19.4291 1.6186 19.9808 1.47848C20.5324 1.33846 21.5706 1.13735 22.2877 1.03153C23.0049 0.925815 24.2913 0.810968 25.1463 0.776263C26.0727 0.73875 27.228 0.760617 28.005 0.830427C28.7221 0.894821 29.7151 1.01539 30.2116 1.09834C30.7081 1.18129 31.7103 1.40446 32.4387 1.59443C33.1671 1.7843 33.9833 2.02332 34.2523 2.12553L34.7416 2.31149ZM29.1083 7.02108C29.6048 7.10122 30.4398 7.28207 30.9639 7.42289C31.488 7.56372 32.3681 7.8574 32.9198 8.07556C33.4714 8.29372 34.3459 8.69804 34.8629 8.97397C35.3801 9.2499 36.1325 9.69785 36.5349 9.96947C36.9374 10.241 37.5524 10.6965 37.9017 10.9815C38.2509 11.2665 38.8639 11.8194 39.2639 12.2101C39.6639 12.6008 39.9911 12.9586 39.9911 13.0051C39.9911 13.0517 35.3394 19.3202 29.654 26.9353C23.9686 34.5503 19.3434 40.8073 19.3757 40.8396C19.4079 40.8719 23.7076 38.7497 28.9305 36.1238L38.4268 31.3492L38.7512 30.5126C38.9297 30.0524 39.1034 29.5166 39.1373 29.3217L39.1989 28.9675L42.9555 27.09C45.0215 26.0573 46.7344 25.2125 46.7618 25.2125C46.7893 25.2125 46.8116 25.5011 46.8116 25.8538C46.8116 26.2066 46.7657 26.9626 46.7094 27.5339C46.6533 28.1052 46.5147 29.0671 46.4016 29.6715C46.2885 30.2759 46.0013 31.3591 45.7634 32.0788C45.5256 32.7984 45.2182 33.6354 45.0804 33.9388L44.83 34.4905L34.6621 39.571L24.4944 44.6515L23.7421 44.5569C23.3284 44.5048 22.5695 44.3748 22.0556 44.2678C21.5419 44.1609 20.6392 43.9125 20.0496 43.7159C19.4601 43.5192 18.4689 43.1143 17.847 42.816C17.2252 42.5177 16.3225 42.0169 15.841 41.7033C15.3596 41.3897 14.6948 40.926 14.3639 40.673C14.0329 40.42 13.3262 39.7916 12.7936 39.2767L11.8252 38.3403L13.4893 36.1145C14.4045 34.8903 19.0746 28.6369 23.8675 22.2182C28.6602 15.7994 32.5537 10.5199 32.5196 10.4858C32.4855 10.4517 28.2 12.5526 22.9961 15.1543L13.5346 19.8847L13.2146 20.7682C13.0387 21.2542 12.8701 21.7748 12.8399 21.9253C12.7906 22.1711 12.4049 22.3925 9.03921 24.1069C6.9791 25.1563 5.26232 26.0149 5.22421 26.0149C5.18619 26.0149 5.18329 25.3944 5.21799 24.6358C5.25259 23.8773 5.36995 22.7375 5.47888 22.1031C5.5877 21.4687 5.83365 20.408 6.02532 19.746C6.217 19.084 6.54108 18.1447 6.74549 17.6585L7.11721 16.7747L17.1097 11.7725L27.1022 6.77033L27.6539 6.82279C27.9573 6.85167 28.6118 6.94094 29.1083 7.02108ZM22.284 23.3068C26.6324 17.4867 30.3019 12.5782 30.4385 12.3989C30.575 12.2195 30.6475 12.0754 30.5997 12.0784C30.5517 12.0814 26.8114 13.937 22.2877 16.2019C17.7641 18.4667 14.0446 20.3369 14.0221 20.3579C13.9997 20.3789 13.8144 20.9043 13.6104 21.5254L13.2395 22.6548L10.1406 24.2245L7.04179 25.7943L7.07398 26.6318C7.09174 27.0924 7.17128 27.9207 7.25062 28.4723C7.33006 29.0239 7.53086 29.9842 7.69686 30.6061C7.86276 31.228 8.13709 32.0856 8.3064 32.5119C8.47571 32.9381 8.83148 33.719 9.09698 34.2474C9.36248 34.7757 9.75015 35.4753 9.95858 35.8021C10.1669 36.1288 10.5839 36.7245 10.8851 37.1257L11.4327 37.8553L12.9054 35.8719C13.7153 34.7811 17.9357 29.1268 22.284 23.3068ZM25.6395 6.796C25.6166 6.81757 22.3318 8.46754 18.3401 10.4626C11.881 13.6909 11.1082 14.0535 11.3167 13.7585C11.4455 13.5761 12.0258 12.9487 12.6063 12.3642C13.1868 11.7797 14.1186 10.9627 14.677 10.5486C15.2354 10.1346 16.1041 9.56004 16.6075 9.27197C17.1109 8.9839 17.9206 8.57567 18.4067 8.36483C18.8929 8.154 19.7167 7.84156 20.2375 7.67054C20.7583 7.49952 21.6284 7.26753 22.1712 7.15499C22.7139 7.04245 23.4812 6.91266 23.8763 6.86662C24.2714 6.82058 24.8392 6.77705 25.138 6.76993C25.4368 6.76271 25.6625 6.77454 25.6395 6.796ZM43.041 17.4287C42.7432 16.8162 42.1844 15.8458 41.7992 15.2722C41.414 14.6987 40.9512 14.0621 40.7706 13.8577L40.4424 13.4861L30.8504 26.3453C25.5747 33.4179 21.2731 39.2209 21.2909 39.2408C21.3089 39.2606 25.0708 37.3888 29.6509 35.0811L37.9782 30.8854L38.2187 30.2305C38.351 29.8703 38.5163 29.35 38.5859 29.0741L38.7126 28.5726L41.8642 26.9687L45.0157 25.3648L44.9525 24.5614C44.9177 24.1196 44.8234 23.3296 44.743 22.8059C44.6626 22.2822 44.5082 21.5066 44.4 21.0827C44.2916 20.6587 44.0635 19.9136 43.8927 19.4271C43.7221 18.9405 43.3388 18.0413 43.041 17.4287ZM40.8778 37.4745C40.6942 37.7089 40.1375 38.3239 39.6406 38.8411C39.1438 39.3582 38.4166 40.0442 38.0247 40.3653C37.6327 40.6863 36.9378 41.1996 36.4805 41.5056C36.0232 41.8117 35.1252 42.3286 34.485 42.6542C33.8448 42.9797 32.9148 43.3892 32.4183 43.5639C31.9218 43.7386 31.102 43.9893 30.5966 44.1208C30.0911 44.2523 29.1756 44.4299 28.562 44.5156C27.9484 44.6011 27.0981 44.6686 26.6725 44.6656L25.8986 44.6601L33.4714 40.8597C37.6365 38.7694 41.0819 37.0567 41.1279 37.0537C41.174 37.0507 41.0614 37.2401 40.8778 37.4745ZM31.3149 1.84579C30.7633 1.72693 29.8606 1.56384 29.3089 1.48339C28.7572 1.40285 27.516 1.3196 26.5506 1.29814C25.5852 1.27677 24.6147 1.27717 24.3941 1.29914C24.1734 1.32101 23.5641 1.38811 23.04 1.44809C22.5159 1.50817 21.5455 1.67006 20.8835 1.80797C20.2215 1.94589 19.0705 2.26104 18.3258 2.50828C17.581 2.75553 16.2805 3.29215 15.4358 3.70058C14.5909 4.10911 13.4418 4.74332 12.882 5.11012C12.3222 5.47693 11.5013 6.05166 11.0579 6.38727C10.6144 6.72298 9.69358 7.54155 9.01172 8.20625C8.32987 8.87106 7.42213 9.84881 6.99444 10.3791C6.56675 10.9093 5.92261 11.7895 5.56303 12.335C5.20345 12.8804 4.67987 13.7561 4.39942 14.281C4.11908 14.8057 3.68818 15.7162 3.44194 16.304C3.1956 16.8918 2.85176 17.8165 2.67773 18.3588C2.50371 18.9011 2.25486 19.8188 2.12467 20.398C1.99448 20.9772 1.82115 21.9477 1.73941 22.5545C1.65766 23.1613 1.56097 24.1769 1.52456 24.8113C1.48805 25.4457 1.50811 26.6192 1.56899 27.4192C1.62988 28.2191 1.74854 29.2798 1.83259 29.7763C1.91664 30.2728 2.13951 31.2703 2.32788 31.9929C2.51635 32.7156 2.87343 33.8321 3.12147 34.4739C3.36952 35.1157 3.86592 36.2171 4.2246 36.9213C4.58318 37.6255 5.17647 38.653 5.54297 39.2047C5.90948 39.7563 6.55362 40.6365 6.97428 41.1606C7.39505 41.6846 8.21703 42.5874 8.80099 43.1666C9.38485 43.7459 10.3386 44.591 10.9203 45.0448C11.502 45.4985 12.4173 46.146 12.9543 46.4834C13.4912 46.8209 14.3989 47.3372 14.9712 47.6306C15.5436 47.924 16.4821 48.3458 17.0569 48.5678C17.6317 48.7899 18.5776 49.11 19.1589 49.2793C19.7402 49.4487 20.6369 49.6729 21.1515 49.7776C21.6661 49.8822 22.5159 50.0268 23.04 50.0988C23.5712 50.1718 24.9028 50.2292 26.0491 50.2285C27.4681 50.2275 28.4782 50.173 29.3089 50.0527C29.9709 49.9567 31.009 49.7611 31.6158 49.6181C32.2227 49.475 33.2178 49.1866 33.8273 48.9771C34.4367 48.7676 35.3532 48.4149 35.8639 48.1935C36.3747 47.9719 37.185 47.577 37.6647 47.3157C38.1443 47.0545 39.0325 46.5059 39.6385 46.0965C40.2445 45.6873 40.9667 45.1668 41.2434 44.9401C41.52 44.7133 42.1391 44.1735 42.619 43.7406C43.0989 43.3077 43.8708 42.5163 44.3343 41.9818C44.7977 41.4473 45.4592 40.6275 45.8041 40.1597C46.1491 39.692 46.7527 38.7668 47.1452 38.1035C47.5378 37.4403 48.0709 36.423 48.3299 35.8428C48.5889 35.2627 48.979 34.2697 49.1968 33.6362C49.4146 33.0027 49.7098 31.9879 49.8527 31.3811C49.9957 30.7743 50.1923 29.7587 50.2895 29.1243C50.4165 28.2966 50.4669 27.3619 50.4686 25.8143C50.4698 24.5583 50.4152 23.2599 50.3379 22.7049C50.2647 22.1809 50.1151 21.3233 50.0052 20.7992C49.8952 20.2751 49.6733 19.3879 49.5119 18.8276C49.3505 18.2672 49.0216 17.3193 48.7812 16.7212C48.5406 16.123 48.1308 15.2097 47.8704 14.6915C47.61 14.1733 47.1438 13.3401 46.8345 12.8399C46.5251 12.3397 45.9312 11.4773 45.5148 10.9234C45.0984 10.3696 44.2167 9.35963 43.5554 8.67908C42.8941 7.99853 41.9458 7.11256 41.448 6.71025C40.9501 6.30793 40.0914 5.67653 39.5397 5.30722C38.9881 4.93791 37.8301 4.28363 36.9664 3.85334C35.9935 3.36868 34.8104 2.879 33.857 2.56646C33.0105 2.28892 31.8666 1.96465 31.3149 1.84579ZM23.692 6.37223C23.2506 6.42218 22.3758 6.57785 21.7478 6.71827C21.1198 6.85869 20.1652 7.127 19.6264 7.31457C19.0876 7.50203 18.3032 7.81207 17.8834 8.00344C17.4635 8.19472 16.6916 8.60345 16.1679 8.91158C15.6443 9.21981 14.7682 9.80918 14.2209 10.2214C13.6737 10.6337 12.8275 11.367 12.3406 11.8511C11.8535 12.3352 11.1683 13.0882 10.8178 13.5243C10.4673 13.9604 10.1568 14.3792 10.1278 14.4548C10.0987 14.5305 9.30972 14.9756 8.3744 15.4438L6.67378 16.2952L6.36856 16.9675C6.20065 17.3372 5.88851 18.1714 5.67487 18.8213C5.46122 19.4712 5.17556 20.5545 5.04015 21.2286C4.90475 21.9026 4.74727 22.9958 4.6902 23.6578C4.63313 24.3198 4.58599 25.3241 4.58538 25.8895C4.58478 26.5237 4.6237 26.9176 4.68689 26.9176C4.74326 26.9176 5.1542 26.7343 5.60004 26.5101C6.04579 26.2859 6.43566 26.1276 6.46625 26.1582C6.49684 26.1887 6.56114 26.722 6.60918 27.343C6.65733 27.9642 6.80628 29.015 6.94038 29.6781C7.07438 30.3413 7.37018 31.4245 7.59756 32.0853C7.82505 32.7462 8.32455 33.8962 8.70761 34.6409C9.09066 35.3857 9.69779 36.4059 10.0569 36.9082C10.4159 37.4106 11.0805 38.2427 11.5337 38.7575C11.987 39.2723 12.8092 40.0731 13.3608 40.5372C13.9125 41.0013 14.7309 41.6254 15.1794 41.9241C15.628 42.2228 16.4178 42.6897 16.9347 42.9617C17.4516 43.2337 18.3407 43.6411 18.9108 43.867C19.4808 44.0929 20.4542 44.4085 21.0741 44.5682C21.6938 44.728 22.7073 44.9294 23.3261 45.0158C23.9646 45.1047 25.1328 45.1719 26.0274 45.1708C26.8944 45.1698 28.0777 45.1016 28.6568 45.0193C29.2361 44.937 30.1716 44.7584 30.7359 44.6224C31.3002 44.4864 32.2029 44.2104 32.742 44.0089C33.2812 43.8075 34.1961 43.4049 34.7754 43.1144C35.3546 42.8238 36.2348 42.3186 36.7313 41.9918C37.2278 41.6651 38.0415 41.0556 38.5397 40.6377C39.0378 40.2197 39.7481 39.5568 40.1181 39.1646C40.4881 38.7725 41.1411 37.9951 41.5694 37.4372L42.3482 36.423L43.8297 35.6808L45.3111 34.9386L45.5663 34.3635C45.7067 34.0471 45.9771 33.3422 46.1674 32.797C46.3577 32.2517 46.6069 31.4393 46.7215 30.9915C46.8359 30.5438 46.9916 29.8255 47.0673 29.3954C47.1431 28.9653 47.2579 27.9442 47.3224 27.1264C47.3868 26.3085 47.4075 25.3402 47.3684 24.9746C47.3292 24.609 47.2547 24.3098 47.2026 24.3098C47.1507 24.3098 46.7512 24.4892 46.3148 24.7086L45.5215 25.1075L45.4626 24.5331C45.4301 24.2172 45.3545 23.5525 45.2947 23.056C45.2348 22.5595 45.0374 21.5607 44.856 20.8363C44.6746 20.112 44.2835 18.9385 43.987 18.2285C43.6905 17.5185 43.161 16.4562 42.8104 15.8678C42.4597 15.2795 41.8742 14.3993 41.509 13.9119C41.1439 13.4246 40.3708 12.5517 39.7912 11.9721C39.2115 11.3926 38.3085 10.5982 37.7844 10.2069C37.2604 9.8155 36.4439 9.26334 35.9702 8.97979C35.4964 8.69623 34.7291 8.2871 34.265 8.07055C33.8009 7.85399 32.9646 7.51858 32.4065 7.3252C31.8484 7.13182 30.878 6.8596 30.25 6.72028C29.622 6.58106 28.67 6.41947 28.1343 6.36119C27.5986 6.30302 26.5605 6.26129 25.8273 6.26852C25.0942 6.27574 24.1333 6.32238 23.692 6.37223ZM10.4486 45.3676C10.8879 45.7148 11.6326 46.257 12.1035 46.5725C12.5744 46.8879 13.4298 47.4056 14.0045 47.7227C14.5792 48.0399 15.3014 48.4125 15.6093 48.5506L16.1693 48.802L14.8654 49.4538L13.5614 50.1055L12.7089 49.6356C12.24 49.3771 11.3592 48.8365 10.7517 48.4341C10.1441 48.0317 9.28023 47.4062 8.83188 47.0442C8.38353 46.6822 7.73869 46.1287 7.39896 45.8142C7.05924 45.4996 6.80186 45.1889 6.82694 45.1236C6.85201 45.0582 7.15633 44.6145 7.50318 44.1374L8.13398 43.27L8.89176 44.0032C9.30862 44.4064 10.0091 45.0205 10.4486 45.3676ZM41.4956 3.12364C40.9715 2.76415 40.066 2.19333 39.4833 1.85512C38.9005 1.517 38.3589 1.24257 38.2796 1.24548C38.2004 1.24839 37.5567 1.54368 36.8494 1.90186L35.5633 2.55292L37.1503 3.34089C38.0232 3.7743 39.2789 4.49096 39.9409 4.93359C40.6029 5.37613 41.5734 6.0982 42.0974 6.53813C42.6215 6.97805 43.2042 7.49892 43.3922 7.69552L43.7341 8.05309L44.4203 7.13683C44.7977 6.63291 45.1065 6.18757 45.1065 6.14715C45.1065 6.10673 44.7342 5.74022 44.279 5.33269C43.8238 4.92517 43.2258 4.40841 42.95 4.18454C42.6742 3.96056 42.0197 3.48312 41.4956 3.12364Z" stroke="white" stroke-width="0.4" mask="url(#path-2-outside-1)"/>
</svg>
