<svg width="27" height="27" viewBox="0 0 27 27" fill="none" xmlns="http://www.w3.org/2000/svg">
<path d="M16.4812 5.60261L10.8562 3.63386C10.3837 3.46511 9.86625 3.46511 9.39375 3.62261L4.905 5.13011C3.99375 5.44511 3.375 6.30011 3.375 7.26761V20.5989C3.375 22.1851 4.96125 23.2651 6.435 22.6914L9.73125 21.4089C9.97875 21.3076 10.26 21.3076 10.5075 21.3976L16.1325 23.3664C16.605 23.5351 17.1225 23.5351 17.595 23.3776L22.0837 21.8701C22.995 21.5664 23.6137 20.7001 23.6137 19.7326V6.40136C23.6137 4.81511 22.0275 3.73511 20.5537 4.30886L17.2575 5.59136C17.01 5.68136 16.74 5.69261 16.4812 5.60261ZM16.875 21.2514L10.125 18.8776V5.74886L16.875 8.12261V21.2514Z" fill="white"/>
</svg>
