<svg width="18" height="5" viewBox="0 0 18 5" fill="none" xmlns="http://www.w3.org/2000/svg">
<path opacity="0.5" d="M2.18327 0.143433C0.991601 0.143433 0.0166016 1.11843 0.0166016 2.3101C0.0166016 3.50177 0.991601 4.47677 2.18327 4.47677C3.37493 4.47677 4.34993 3.50177 4.34993 2.3101C4.34993 1.11843 3.37493 0.143433 2.18327 0.143433ZM15.1833 0.143433C13.9916 0.143433 13.0166 1.11843 13.0166 2.3101C13.0166 3.50177 13.9916 4.47677 15.1833 4.47677C16.3749 4.47677 17.3499 3.50177 17.3499 2.3101C17.3499 1.11843 16.3749 0.143433 15.1833 0.143433ZM8.68327 0.143433C7.4916 0.143433 6.5166 1.11843 6.5166 2.3101C6.5166 3.50177 7.4916 4.47677 8.68327 4.47677C9.87493 4.47677 10.8499 3.50177 10.8499 2.3101C10.8499 1.11843 9.87493 0.143433 8.68327 0.143433Z" fill="white"/>
</svg>
