<svg width="12" height="12" viewBox="0 0 12 12" fill="none" xmlns="http://www.w3.org/2000/svg">
<path opacity="0.33" d="M11.0356 9.92201C11.0356 9.00725 10.35 8.23772 9.44127 8.13254L9.09896 8.09291C8.32449 8.00327 7.55152 8.27243 7.00023 8.82371L6.36065 9.4633C4.66231 8.59913 3.27004 7.21286 2.40587 5.50852L3.05419 4.86019C3.60372 4.31067 3.87186 3.54007 3.78217 2.76812L3.74328 2.43346C3.63772 1.52491 2.86818 0.8396 1.95352 0.8396C0.998218 0.8396 0.191227 1.58969 0.293116 2.53953C0.80335 7.29614 4.57934 11.072 9.33599 11.5821C10.2856 11.6839 11.0356 10.8771 11.0356 9.92201Z" fill="white"/>
</svg>
