<svg width="184" height="441" viewBox="0 0 184 441" fill="none" xmlns="http://www.w3.org/2000/svg">
<path d="M69.3028 421.401L70.5019 416.33C70.7806 415.151 71.5001 414.124 72.5125 413.459C72.793 413.275 73.0922 413.121 73.4051 413L77.6955 411.34C78.1433 411.167 78.5768 410.959 78.9918 410.717C81.4268 409.302 83.0732 406.843 83.4542 404.052L83.5446 403.389L83.6654 400.439C83.7159 399.205 84.6703 398.197 85.9001 398.08C86.6967 398.004 87.4074 397.548 87.8069 396.854L88.5521 395.561C89.3355 394.201 89.484 392.567 88.9584 391.088L88.0772 388.609C87.7648 387.73 87.5648 386.816 87.4818 385.887L86.273 372.356L87.2414 348.689C87.012 338.452 86.5722 317.516 86.6482 315.66C86.7241 313.804 88.4299 303.802 89.2732 299.033L91.0794 278.654L93.0987 260.201C93.1678 259.57 94.0528 259.488 94.2371 260.095C94.2561 260.158 94.2644 260.223 94.2618 260.289L94.0424 265.649C94.0142 266.34 94.0398 267.031 94.1277 267.718C94.4066 269.894 94.8665 273.062 95.1712 273.708C95.6186 274.656 95.933 278.852 96.3614 280.264C96.7898 281.676 98.5414 286.396 98.9698 287.808C99.3981 289.221 101.521 296.745 101.969 297.693C102.326 298.451 102.499 304.532 102.54 307.478L103.256 325.637L102.326 348.376L100.015 369.2L100.083 376.84C100.095 378.247 100.336 379.643 100.796 380.973L102.71 386.509L103.312 389.542C103.711 391.553 104.58 393.442 105.848 395.053L107.81 397.545C107.989 397.771 108.191 397.977 108.415 398.158L110.878 400.151C111.603 400.738 111.576 401.852 110.824 402.403C110.063 402.96 110.045 404.09 110.788 404.671L112.76 406.21C112.969 406.374 113.159 406.563 113.324 406.772L115.702 409.794C116.704 411.066 117.327 412.594 117.501 414.204C117.558 414.739 117.666 415.268 117.822 415.783L118.47 417.919C118.738 418.801 119.098 419.651 119.545 420.456L122.042 424.953C123.182 427.693 125.297 429.913 127.978 431.184L130.583 432.419C131.785 432.989 133.068 433.371 134.387 433.552L136.103 433.787C136.854 433.89 137.613 433.927 138.37 433.898L140.764 433.805C142.284 433.747 143.771 433.338 145.107 432.612C146.389 431.916 147.5 430.945 148.363 429.769L148.639 429.393C150.585 426.739 151.354 423.402 150.766 420.165L150.497 418.68L148.859 411.175L148.299 408.977C147.577 406.141 145.919 403.632 143.594 401.856L140.112 399.196C138.809 398.112 138.621 396.182 139.69 394.868L139.881 394.633C140.171 394.275 140.386 393.863 140.512 393.42L141.465 390.078C141.825 388.814 141.715 387.463 141.154 386.275L141.08 386.118C140.817 385.561 140.445 385.063 139.984 384.653C138.454 383.291 138.016 381.078 138.91 379.235L139.69 377.629C139.931 377.132 140.112 376.608 140.229 376.069L141.013 372.451C141.172 371.72 141.267 370.976 141.297 370.228L141.574 363.463L141.736 359.498C141.793 358.128 141.631 356.757 141.259 355.437L140.26 351.898C139.888 350.578 139.727 349.207 139.783 347.836L139.983 342.944C140.671 338.014 142.054 327.968 142.085 327.225L142.901 307.27L142.11 290.968C141.919 287.706 141.542 281.09 141.557 280.719C141.569 280.425 140.859 277.949 140.278 275.995C140.005 275.075 139.882 274.117 139.921 273.158L139.953 272.376C140.029 270.54 140.851 268.815 142.23 267.601C142.804 267.095 143.46 266.691 144.17 266.406L150.106 264.022C151.032 263.65 151.913 263.172 152.73 262.598L157.558 259.209C158.521 258.533 159.386 257.732 160.13 256.821C162.484 253.94 165.827 249.806 166.183 249.187C166.486 248.662 168.233 246.381 169.759 244.42C170.771 243.12 171.358 241.539 171.425 239.893C171.47 238.808 171.288 237.726 170.891 236.716L168.97 231.819C168.311 230.139 168.009 228.341 168.082 226.539L168.407 218.598L170.452 204.272L173.21 191.548C173.369 190.817 173.464 190.073 173.494 189.325L174.094 174.67L174.721 159.356C174.745 158.771 174.502 154.871 174.299 151.797C174.201 150.323 173.849 148.878 173.261 147.523L171.483 143.419L170.891 141.468C170.446 140 170.579 138.418 171.263 137.045C171.609 136.351 172.087 135.73 172.669 135.217L173.805 134.217L175.563 132.668C176.569 131.782 176.738 130.279 175.955 129.192L174.079 127.001C172.869 125.587 171.977 123.931 171.462 122.143L169.263 114.507L167.071 106.104C166.578 104.213 165.664 102.457 164.398 100.968L159.364 95.0436L152.471 87.8911C151.783 87.1772 151.016 86.5444 150.184 86.0049L141.49 80.3668L131.096 73.8249C130.13 73.2171 129.088 72.7391 127.998 72.4032L117.474 69.1617C116.313 68.8044 115.232 68.2283 114.288 67.4646L114.049 67.2705C112.395 65.9324 111.289 64.0349 110.939 61.9366C110.781 60.994 110.78 60.032 110.936 59.089L111.556 55.3224C111.845 53.574 112.537 51.917 113.578 50.4832C114.897 48.6669 115.65 46.5011 115.742 44.2582L115.905 40.2727L116.133 34.7038L116.399 28.2068L116.477 26.2783C116.61 23.0411 115.526 19.8717 113.438 17.3942L109.097 12.0651C108.597 11.4515 108.042 10.8849 107.44 10.3722L105.689 8.88337C104.041 7.48178 102.069 6.51366 99.9522 6.06679L97.9644 5.64715C96.0037 5.23324 93.9739 5.2782 92.0335 5.77851L87.5533 6.93365C86.2901 7.25934 85.0832 7.77328 83.9731 8.45822L81.3418 10.0816C78.6523 11.7409 76.6593 14.3232 75.7356 17.3453L74.3623 21.8383L72.9906 28.7281C72.6837 30.27 72.659 31.8548 72.9177 33.4055L74.239 41.326C74.3982 42.2798 74.6647 43.2123 75.0235 44.1103C76.0996 46.8035 77.5598 50.6267 77.5342 51.2535L77.2493 58.2146L77.3512 62.3925C77.3988 64.3443 76.1941 66.1082 74.3588 66.7741C74.1044 66.8663 73.8587 66.9812 73.6248 67.1172L70.9883 68.6499L66.8984 70.7789C66.3142 71.083 65.7539 71.4311 65.2224 71.8202L60.0066 75.6381L52.032 80.4251L42.7852 84.9967C42.0048 85.3825 41.265 85.8458 40.5772 86.3796L35.3448 90.4396C33.85 91.5995 32.6265 93.0716 31.7595 94.7532L28.851 100.395L22.1228 113.639C21.676 114.519 21.0912 115.321 20.3906 116.015C16.5823 119.79 16.7793 126.003 20.819 129.529L21.2532 129.908C23.6497 132 24.8779 135.127 24.545 138.291L22.6894 155.924L20.8073 178.16L20.9773 195.027C20.9919 196.483 21.2512 197.927 21.7444 199.297L23.3811 203.846C23.8279 205.087 24.083 206.39 24.1377 207.708L25.5241 241.108L25.7573 245.096C25.9729 248.785 27.7482 252.208 30.6395 254.509L37.7472 260.166C40.5298 262.381 42.2837 265.638 42.6001 269.181L44.4387 289.761L45.0129 323.253L47.2351 361.271C47.2788 362.018 47.387 362.761 47.5585 363.49L51.7489 381.299C52.0445 382.555 51.3353 383.83 50.1118 384.242C49.9086 384.31 49.7151 384.404 49.5359 384.522L48.4387 385.243C48.0236 385.515 47.6782 385.881 47.4302 386.312C46.7237 387.538 46.9134 389.084 47.8954 390.103L49.5019 391.77L51.7294 393.825C52.8303 394.841 52.9056 396.555 51.8981 397.664C51.7544 397.822 51.5927 397.963 51.4163 398.083L47.1807 400.972C46.3465 401.557 44.3792 402.902 43.1839 403.597C42.2448 404.143 41.82 405.322 41.6657 406.178C41.5962 406.563 41.7486 406.946 42.0203 407.228C42.5615 407.789 42.5548 408.68 42.0052 409.233L39.4446 411.811L35.2849 417.286C34.6355 418.141 34.1062 419.08 33.7117 420.078L33.265 421.209C32.5364 423.053 32.4814 425.094 33.1098 426.974C33.6064 428.46 34.5075 429.778 35.7119 430.78L36.0163 431.033C37.6733 432.412 39.738 433.206 41.8917 433.295L47.7887 433.536C48.4378 433.562 49.0879 433.54 49.7336 433.47L55.3809 432.852C57.1368 432.66 58.8352 432.112 60.3724 431.242L63.0567 429.722C66.2063 427.939 68.4699 424.923 69.3028 421.401Z" stroke="#FF3434" stroke-width="4"/>
<rect x="85.7559" y="128.522" width="16.639" height="40.6732" fill="#191B25"/>
<path d="M94.9999 117.429C79.1817 117.429 66.3438 130.267 66.3438 146.085C66.3438 161.903 79.1817 174.741 94.9999 174.741C110.818 174.741 123.656 161.903 123.656 146.085C123.656 130.267 110.818 117.429 94.9999 117.429ZM94.9999 148.951C93.4238 148.951 92.1343 147.661 92.1343 146.085V134.623C92.1343 133.047 93.4238 131.757 94.9999 131.757C96.576 131.757 97.8655 133.047 97.8655 134.623V146.085C97.8655 147.661 96.576 148.951 94.9999 148.951ZM97.8655 160.413H92.1343V154.682H97.8655V160.413Z" fill="#FF3434"/>
<rect x="61.5781" y="192.946" width="68.6926" height="24.6864" rx="12.3432" fill="#FF3434"/>
<path d="M81.2917 211.193H83.7067V208.97H85.2831V206.941H83.7067V199.093H80.1513C78.5413 201.575 76.8978 204.258 75.3633 206.983V208.97H81.2917V211.193ZM77.6441 207.008V206.874C78.7342 204.92 80.0339 202.816 81.2079 201.013H81.342V207.008H77.6441Z" fill="#191B25"/>
<path d="M90.2305 211.193H92.7628V199.093H90.2389L87.1111 201.264V203.545L90.0795 201.482H90.2305V211.193Z" fill="#191B25"/>
<path d="M96.3014 211.193H98.8338V206.43H103.756V204.426H98.8338V201.18H104.226V199.093H96.3014V211.193Z" fill="#191B25"/>
<path d="M109.5 211.193H112.032V201.18H115.663V199.093H105.869V201.18H109.5V211.193Z" fill="#191B25"/>
</svg>
