<svg width="317" height="451" viewBox="0 0 317 451" fill="none" xmlns="http://www.w3.org/2000/svg">
<path d="M132.803 433.674L134.002 428.604C134.281 427.425 135 426.397 136.013 425.732C136.293 425.548 136.592 425.394 136.905 425.273L141.196 423.614C141.643 423.44 142.077 423.232 142.492 422.991C144.927 421.575 146.573 419.116 146.954 416.325L147.045 415.663L147.165 412.712C147.216 411.478 148.17 410.471 149.4 410.354C150.197 410.278 150.907 409.821 151.307 409.128L152.052 407.834C152.836 406.475 152.984 404.84 152.458 403.361L151.577 400.882C151.265 400.004 151.065 399.089 150.982 398.161L149.773 384.63L150.741 360.962C150.512 350.726 150.072 329.79 150.148 327.933C150.224 326.077 151.93 316.075 152.773 311.306L154.579 290.927L156.599 272.475C156.668 271.844 157.553 271.761 157.737 272.369C157.756 272.431 157.764 272.497 157.762 272.562L157.542 277.922C157.514 278.613 157.54 279.305 157.628 279.991C157.907 282.168 158.366 285.335 158.671 285.981C159.119 286.929 159.433 291.126 159.861 292.538C160.29 293.95 162.041 298.67 162.47 300.082C162.898 301.494 165.021 309.018 165.469 309.966C165.826 310.725 165.999 316.806 166.04 319.752L166.756 337.91L165.826 360.649L163.515 381.473L163.583 389.114C163.595 390.521 163.836 391.917 164.296 393.246L166.21 398.783L166.812 401.816C167.211 403.827 168.08 405.715 169.348 407.326L171.31 409.818C171.489 410.045 171.691 410.25 171.915 410.431L174.378 412.424C175.103 413.011 175.076 414.126 174.324 414.677C173.563 415.234 173.545 416.364 174.288 416.944L176.26 418.484C176.469 418.648 176.659 418.836 176.824 419.046L179.202 422.067C180.204 423.339 180.827 424.868 181.001 426.478C181.058 427.013 181.166 427.542 181.322 428.057L181.97 430.193C182.238 431.074 182.598 431.925 183.045 432.73L185.542 437.226C186.682 439.966 188.797 442.186 191.478 443.457L194.083 444.692C195.285 445.262 196.568 445.645 197.887 445.825L199.603 446.061C200.354 446.163 201.113 446.201 201.87 446.171L204.264 446.079C205.784 446.02 207.271 445.612 208.607 444.885C209.889 444.189 211 443.218 211.863 442.042L212.139 441.666C214.085 439.013 214.854 435.676 214.266 432.438L213.997 430.953L212.359 423.449L211.799 421.25C211.077 418.415 209.419 415.906 207.094 414.13L203.612 411.469C202.309 410.386 202.121 408.456 203.19 407.141L203.381 406.906C203.671 406.549 203.886 406.137 204.012 405.694L204.965 402.351C205.325 401.088 205.215 399.736 204.654 398.548L204.58 398.392C204.317 397.835 203.945 397.336 203.484 396.926C201.954 395.564 201.516 393.352 202.41 391.509L203.19 389.902C203.431 389.405 203.612 388.882 203.729 388.342L204.513 384.724C204.672 383.993 204.767 383.249 204.797 382.502L205.074 375.736L205.236 371.772C205.293 370.401 205.131 369.031 204.759 367.71L203.76 364.171C203.388 362.851 203.227 361.48 203.283 360.11L203.483 355.218C204.171 350.287 205.554 340.241 205.585 339.499L206.401 319.544L205.61 303.242C205.419 299.98 205.042 293.364 205.057 292.992C205.069 292.699 204.359 290.222 203.778 288.268C203.505 287.348 203.382 286.39 203.421 285.432L203.453 284.649C203.529 282.814 204.351 281.088 205.73 279.874C206.304 279.368 206.96 278.964 207.67 278.679L213.606 276.295C214.532 275.923 215.413 275.445 216.23 274.872L221.058 271.482C222.021 270.807 222.886 270.005 223.63 269.095C225.984 266.214 229.327 262.079 229.683 261.461C229.986 260.935 231.733 258.654 233.259 256.693C234.271 255.393 234.858 253.812 234.925 252.166C234.97 251.082 234.788 250 234.391 248.989L232.47 244.092C231.811 242.413 231.509 240.615 231.582 238.812L231.907 230.872L233.952 216.545L236.71 203.821C236.869 203.09 236.964 202.346 236.994 201.599L237.594 186.944L238.221 171.63C238.245 171.045 238.002 167.144 237.799 164.071C237.701 162.597 237.349 161.152 236.761 159.796L234.983 155.692L234.391 153.741C233.946 152.274 234.079 150.691 234.763 149.319C235.109 148.624 235.587 148.003 236.169 147.49L237.305 146.49L239.063 144.941C240.069 144.056 240.238 142.552 239.455 141.465L237.579 139.274C236.369 137.861 235.477 136.204 234.962 134.416L232.763 126.781L230.571 118.378C230.078 116.486 229.164 114.731 227.898 113.241L222.864 107.317L215.971 100.165C215.283 99.4507 214.516 98.8178 213.684 98.2784L204.99 92.6402L194.596 86.0984C193.63 85.4905 192.588 85.0125 191.498 84.6766L180.974 81.4352C179.813 81.0778 178.732 80.5017 177.788 79.738L177.549 79.544C175.895 78.2058 174.789 76.3083 174.439 74.21C174.281 73.2674 174.28 72.3054 174.436 71.3625L175.056 67.5959C175.345 65.8474 176.037 64.1904 177.078 62.7566C178.397 60.9403 179.15 58.7746 179.242 56.5317L179.405 52.5461L179.633 46.9773L179.899 40.4803L179.977 38.5517C180.11 35.3146 179.026 32.1451 176.938 29.6676L172.597 24.3385C172.097 23.725 171.542 23.1583 170.94 22.6456L169.189 21.1568C167.541 19.7552 165.569 18.7871 163.452 18.3402L161.464 17.9206C159.504 17.5067 157.474 17.5516 155.533 18.0519L151.053 19.2071C149.79 19.5328 148.583 20.0467 147.473 20.7317L144.842 22.355C142.152 24.0144 140.159 26.5966 139.236 29.6188L137.862 34.1117L136.491 41.0016C136.184 42.5435 136.159 44.1282 136.418 45.679L137.739 53.5994C137.898 54.5533 138.165 55.4857 138.524 56.3837C139.6 59.0769 141.06 62.9002 141.034 63.527L140.749 70.488L140.851 74.666C140.899 76.6177 139.694 78.3817 137.859 79.0475C137.604 79.1398 137.359 79.2546 137.125 79.3906L134.488 80.9233L130.398 83.0523C129.814 83.3564 129.254 83.7045 128.722 84.0936L123.507 87.9115L115.532 92.6986L106.285 97.2701C105.505 97.656 104.765 98.1193 104.077 98.653L98.8448 102.713C97.35 103.873 96.1265 105.345 95.2595 107.027L92.351 112.668L85.6228 125.913C85.176 126.792 84.5912 127.594 83.8906 128.289C80.0823 132.063 80.2793 138.277 84.319 141.803L84.7532 142.182C87.1497 144.273 88.3779 147.401 88.045 150.564L86.1894 168.198L84.3073 190.434L84.4773 207.3C84.4919 208.756 84.7512 210.2 85.2444 211.57L86.8811 216.119C87.3279 217.361 87.583 218.663 87.6377 219.981L89.0241 253.381L89.2573 257.369C89.4729 261.058 91.2482 264.481 94.1395 266.782L101.247 272.439C104.03 274.654 105.784 277.912 106.1 281.454L107.939 302.034L108.513 335.527L110.735 373.544C110.779 374.292 110.887 375.034 111.058 375.763L115.249 393.572C115.545 394.829 114.835 396.104 113.612 396.515C113.409 396.583 113.215 396.678 113.036 396.795L111.939 397.516C111.524 397.789 111.178 398.155 110.93 398.585C110.224 399.811 110.413 401.357 111.395 402.376L113.002 404.043L115.229 406.099C116.33 407.115 116.406 408.829 115.398 409.937C115.254 410.096 115.093 410.236 114.916 410.356L110.681 413.245C109.846 413.831 107.879 415.176 106.684 415.871C105.745 416.417 105.32 417.596 105.166 418.451C105.096 418.837 105.249 419.219 105.52 419.501C106.061 420.063 106.055 420.954 105.505 421.507L102.945 424.085L98.7849 429.559C98.1355 430.414 97.6062 431.354 97.2117 432.352L96.765 433.482C96.0364 435.326 95.9814 437.368 96.6098 439.248C97.1064 440.734 98.0075 442.052 99.2119 443.054L99.5163 443.307C101.173 444.685 103.238 445.48 105.392 445.568L111.289 445.809C111.938 445.836 112.588 445.814 113.234 445.743L118.881 445.125C120.637 444.933 122.335 444.385 123.872 443.515L126.557 441.995C129.706 440.212 131.97 437.197 132.803 433.674Z" stroke="#FF3434" stroke-width="4"/>
<rect opacity="0.1" x="0.429688" y="0.287598" width="316.142" height="316.142" rx="158.071" fill="#FF3434"/>
<rect opacity="0.1" x="45.7246" y="45.5828" width="225.551" height="225.551" rx="112.776" fill="#FF3434"/>
<rect opacity="0.1" x="91.9434" y="91.8022" width="133.112" height="133.112" rx="66.5562" fill="#FF3434"/>
<rect x="149.256" y="140.795" width="16.639" height="40.6732" fill="white"/>
<path d="M158.5 129.702C142.682 129.702 129.844 142.54 129.844 158.359C129.844 174.177 142.682 187.015 158.5 187.015C174.318 187.015 187.156 174.177 187.156 158.359C187.156 142.54 174.318 129.702 158.5 129.702ZM158.5 161.224C156.924 161.224 155.634 159.935 155.634 158.359V146.896C155.634 145.32 156.924 144.03 158.5 144.03C160.076 144.03 161.365 145.32 161.365 146.896V158.359C161.365 159.935 160.076 161.224 158.5 161.224ZM161.365 172.687H155.634V166.955H161.365V172.687Z" fill="#FF3434"/>
<rect x="125.078" y="205.219" width="68.6926" height="24.6864" rx="12.3432" fill="#FF3434"/>
<path d="M144.792 223.466H147.207V221.244H148.783V219.215H147.207V211.366H143.651C142.041 213.848 140.398 216.531 138.863 219.257V221.244H144.792V223.466ZM141.144 219.282V219.148C142.234 217.194 143.534 215.089 144.708 213.286H144.842V219.282H141.144Z" fill="#191B25"/>
<path d="M153.73 223.466H156.263V211.366H153.739L150.611 213.538V215.819L153.58 213.756H153.73V223.466Z" fill="#191B25"/>
<path d="M159.801 223.466H162.334V218.703H167.256V216.699H162.334V213.454H167.726V211.366H159.801V223.466Z" fill="#191B25"/>
<path d="M173 223.466H175.532V213.454H179.163V211.366H169.369V213.454H173V223.466Z" fill="#191B25"/>
</svg>
