<svg width="317" height="453" viewBox="0 0 317 453" fill="none" xmlns="http://www.w3.org/2000/svg">
<path d="M132.801 433.791L134 428.72C134.279 427.541 134.998 426.514 136.011 425.849C136.291 425.665 136.59 425.511 136.903 425.39L141.194 423.73C141.641 423.557 142.075 423.349 142.49 423.107C144.925 421.692 146.571 419.233 146.952 416.442L147.043 415.779L147.163 412.829C147.214 411.595 148.168 410.587 149.398 410.47C150.195 410.395 150.905 409.938 151.305 409.244L152.05 407.951C152.834 406.591 152.982 404.957 152.456 403.478L151.575 400.999C151.263 400.12 151.063 399.206 150.98 398.277L149.771 384.746L150.739 361.079C150.51 350.842 150.07 329.906 150.146 328.05C150.222 326.194 151.928 316.192 152.771 311.423L154.577 291.044L156.597 272.591C156.666 271.96 157.551 271.878 157.735 272.485C157.754 272.548 157.762 272.613 157.76 272.679L157.54 278.039C157.512 278.73 157.538 279.421 157.626 280.108C157.905 282.284 158.365 285.452 158.669 286.098C159.117 287.046 159.431 291.242 159.859 292.654C160.288 294.066 162.039 298.786 162.468 300.199C162.896 301.611 165.019 309.135 165.467 310.083C165.824 310.841 165.997 316.922 166.038 319.868L166.754 338.027L165.824 360.766L163.513 381.59L163.581 389.23C163.593 390.637 163.834 392.033 164.294 393.363L166.208 398.899L166.81 401.932C167.209 403.943 168.078 405.832 169.347 407.443L171.308 409.935C171.487 410.161 171.689 410.367 171.913 410.548L174.376 412.541C175.101 413.128 175.074 414.242 174.322 414.793C173.561 415.35 173.543 416.48 174.286 417.061L176.258 418.6C176.468 418.764 176.657 418.953 176.822 419.162L179.2 422.184C180.202 423.456 180.825 424.984 180.999 426.594C181.056 427.129 181.164 427.658 181.32 428.173L181.968 430.309C182.236 431.191 182.596 432.041 183.043 432.846L185.54 437.343C186.68 440.083 188.795 442.303 191.476 443.574L194.081 444.809C195.283 445.379 196.566 445.761 197.885 445.942L199.601 446.177C200.352 446.28 201.111 446.317 201.868 446.288L204.262 446.195C205.782 446.137 207.269 445.728 208.605 445.002C209.887 444.306 210.998 443.335 211.861 442.159L212.137 441.783C214.083 439.129 214.852 435.792 214.264 432.555L213.995 431.07L212.357 423.565L211.797 421.367C211.075 418.531 209.417 416.022 207.092 414.246L203.61 411.586C202.307 410.502 202.119 408.572 203.188 407.258L203.379 407.023C203.669 406.665 203.884 406.253 204.01 405.81L204.963 402.468C205.323 401.204 205.213 399.853 204.652 398.665L204.578 398.508C204.315 397.951 203.943 397.453 203.482 397.043C201.952 395.681 201.514 393.468 202.408 391.625L203.188 390.019C203.429 389.522 203.61 388.998 203.727 388.459L204.511 384.841C204.67 384.11 204.765 383.366 204.795 382.618L205.072 375.853L205.234 371.888C205.291 370.518 205.129 369.147 204.757 367.827L203.758 364.288C203.386 362.968 203.225 361.597 203.281 360.226L203.481 355.334C204.169 350.404 205.552 340.358 205.583 339.615L206.399 319.66L205.608 303.358C205.417 300.097 205.04 293.48 205.055 293.109C205.067 292.815 204.357 290.339 203.777 288.385C203.503 287.465 203.38 286.507 203.419 285.548L203.451 284.766C203.527 282.93 204.349 281.205 205.728 279.991C206.302 279.485 206.958 279.081 207.668 278.796L213.604 276.412C214.53 276.04 215.411 275.562 216.228 274.988L221.056 271.599C222.019 270.923 222.885 270.122 223.628 269.211C225.983 266.33 229.325 262.196 229.681 261.577C229.984 261.052 231.731 258.771 233.257 256.81C234.269 255.51 234.856 253.929 234.923 252.283C234.968 251.198 234.786 250.116 234.389 249.106L232.468 244.209C231.809 242.529 231.507 240.731 231.58 238.929L231.905 230.988L233.95 216.662L236.708 203.938C236.867 203.207 236.962 202.463 236.992 201.715L237.592 187.06L238.219 171.746C238.243 171.161 238 167.261 237.797 164.187C237.699 162.713 237.347 161.268 236.759 159.913L234.981 155.809L234.389 153.858C233.944 152.39 234.077 150.808 234.761 149.435C235.107 148.741 235.585 148.12 236.167 147.607L237.303 146.607L239.061 145.058C240.067 144.173 240.236 142.669 239.453 141.582L237.577 139.391C236.367 137.977 235.475 136.321 234.96 134.533L232.761 126.897L230.569 118.494C230.076 116.603 229.162 114.847 227.896 113.358L222.862 107.434L215.969 100.281C215.281 99.5672 214.514 98.9344 213.682 98.395L204.988 92.7568L194.594 86.215C193.628 85.6071 192.586 85.1291 191.496 84.7932L180.972 81.5518C179.812 81.1944 178.73 80.6183 177.787 79.8546L177.547 79.6606C175.893 78.3224 174.787 76.4249 174.437 74.3266C174.279 73.384 174.278 72.422 174.434 71.4791L175.055 67.7124C175.343 65.964 176.035 64.307 177.076 62.8732C178.395 61.0569 179.148 58.8912 179.24 56.6482L179.403 52.6627L179.631 47.0938L179.897 40.5969L179.976 38.6683C180.108 35.4312 179.024 32.2617 176.936 29.7842L172.595 24.4551C172.095 23.8415 171.54 23.2749 170.938 22.7622L169.187 21.2734C167.539 19.8718 165.567 18.9037 163.45 18.4568L161.462 18.0372C159.502 17.6233 157.472 17.6682 155.532 18.1685L151.051 19.3237C149.788 19.6494 148.581 20.1633 147.471 20.8482L144.84 22.4716C142.15 24.131 140.157 26.7132 139.234 29.7354L137.86 34.2283L136.489 41.1181C136.182 42.66 136.157 44.2448 136.416 45.7955L137.737 53.716C137.896 54.6698 138.163 55.6023 138.522 56.5003C139.598 59.1935 141.058 63.0168 141.032 63.6435L140.747 70.6046L140.849 74.7825C140.897 76.7343 139.692 78.4983 137.857 79.1641C137.602 79.2564 137.357 79.3712 137.123 79.5072L134.486 81.0399L130.396 83.1689C129.812 83.473 129.252 83.8211 128.72 84.2102L123.505 88.0281L115.53 92.8151L106.283 97.3867C105.503 97.7725 104.763 98.2358 104.075 98.7696L98.8428 102.83C97.3481 103.989 96.1245 105.462 95.2576 107.143L92.349 112.785L85.6208 126.029C85.1741 126.909 84.5893 127.711 83.8886 128.405C80.0804 132.18 80.2773 138.394 84.317 141.919L84.7513 142.298C87.1478 144.39 88.3759 147.517 88.043 150.681L86.1875 168.314L84.3053 190.55L84.4753 207.417C84.49 208.873 84.7493 210.317 85.2424 211.687L86.8792 216.236C87.3259 217.477 87.581 218.78 87.6358 220.098L89.0222 253.498L89.2553 257.486C89.4709 261.175 91.2463 264.598 94.1376 266.899L101.245 272.556C104.028 274.771 105.782 278.028 106.098 281.571L107.937 302.151L108.511 335.643L110.733 373.661C110.777 374.408 110.885 375.151 111.057 375.88L115.247 393.689C115.543 394.945 114.833 396.22 113.61 396.632C113.407 396.7 113.213 396.794 113.034 396.912L111.937 397.633C111.522 397.905 111.176 398.271 110.928 398.702C110.222 399.928 110.411 401.474 111.393 402.493L113 404.16L115.227 406.215C116.328 407.231 116.404 408.945 115.396 410.054C115.252 410.212 115.091 410.353 114.914 410.473L110.679 413.362C109.845 413.947 107.877 415.292 106.682 415.987C105.743 416.533 105.318 417.712 105.164 418.568C105.094 418.953 105.247 419.336 105.518 419.618C106.06 420.179 106.053 421.07 105.503 421.624L102.943 424.201L98.783 429.676C98.1335 430.531 97.6042 431.47 97.2097 432.468L96.763 433.599C96.0344 435.443 95.9795 437.484 96.6078 439.364C97.1044 440.85 98.0056 442.168 99.21 443.17L99.5143 443.423C101.171 444.802 103.236 445.596 105.39 445.685L111.287 445.926C111.936 445.952 112.586 445.93 113.232 445.86L118.879 445.242C120.635 445.05 122.333 444.502 123.87 443.632L126.555 442.112C129.704 440.329 131.968 437.313 132.801 433.791Z" stroke="#83D333" stroke-width="4"/>
<rect opacity="0.1" x="0.427734" y="0.404175" width="316.142" height="316.142" rx="158.071" fill="#83D333"/>
<rect opacity="0.1" x="45.7227" y="45.6993" width="225.551" height="225.551" rx="112.776" fill="#83D333"/>
<rect opacity="0.1" x="91.9414" y="91.9189" width="133.112" height="133.112" rx="66.5562" fill="#83D333"/>
<rect x="133.484" y="133.186" width="50.0291" height="50.5774" rx="20.1161" fill="white"/>
<path d="M158.498 129.819C142.68 129.819 129.842 142.657 129.842 158.475C129.842 174.293 142.68 187.131 158.498 187.131C174.316 187.131 187.154 174.293 187.154 158.475C187.154 142.657 174.316 129.819 158.498 129.819ZM152.767 172.803L138.439 158.475L142.479 154.434L152.767 164.693L174.517 142.943L178.557 147.013L152.767 172.803Z" fill="#83D333"/>
<rect x="64.5" y="202.273" width="190" height="31" rx="15.5" fill="#83D333"/>
<path d="M79.8652 223.273H82.2246V219.148H84.1543L86.2559 223.273H88.9277L86.5527 218.797C87.8418 218.289 88.5918 217.047 88.5918 215.602V215.586C88.5918 213.367 87.123 212 84.5605 212H79.8652V223.273ZM82.2246 217.43V213.844H84.2715C85.4512 213.844 86.1777 214.547 86.1777 215.633V215.648C86.1777 216.758 85.4824 217.43 84.3027 217.43H82.2246ZM90.9746 223.273H98.4434V221.328H93.334V218.477H98.1543V216.664H93.334V213.945H98.4434V212H90.9746V223.273ZM104.959 223.562C107.771 223.562 109.506 222.148 109.506 219.914V219.906C109.506 218.148 108.467 217.195 106.084 216.703L104.889 216.461C103.561 216.188 103.014 215.75 103.014 215.016V215.008C103.014 214.164 103.787 213.633 104.951 213.625C106.139 213.625 106.92 214.188 107.053 214.992L107.068 215.086H109.287L109.279 214.984C109.131 213.102 107.584 211.711 104.951 211.711C102.451 211.711 100.654 213.094 100.654 215.188V215.195C100.654 216.906 101.662 218 104.006 218.477L105.193 218.719C106.592 219.008 107.146 219.422 107.146 220.164V220.172C107.146 221.039 106.279 221.641 105.021 221.641C103.701 221.641 102.787 221.07 102.701 220.227L102.693 220.148H100.42L100.428 220.273C100.561 222.273 102.264 223.562 104.959 223.562ZM116.529 223.562C119.248 223.562 121.178 221.953 121.42 219.594L121.428 219.508H119.131L119.115 219.57C118.865 220.773 117.889 221.562 116.537 221.562C114.756 221.562 113.654 220.062 113.654 217.641V217.625C113.654 215.203 114.756 213.711 116.529 213.711C117.873 213.711 118.881 214.57 119.123 215.836V215.891H121.42V215.797C121.201 213.414 119.201 211.711 116.529 211.711C113.256 211.711 111.24 213.969 111.24 217.625V217.641C111.24 221.297 113.264 223.562 116.529 223.562ZM128.318 223.562C131.225 223.562 133.037 221.883 133.037 219.383V212H130.678V219.172C130.678 220.633 129.834 221.562 128.318 221.562C126.803 221.562 125.951 220.633 125.951 219.172V212H123.592V219.383C123.592 221.891 125.428 223.562 128.318 223.562ZM135.771 223.273H143.24V221.328H138.131V218.477H142.951V216.664H138.131V213.945H143.24V212H135.771V223.273ZM154.639 223.562C157.357 223.562 159.287 221.953 159.529 219.594L159.537 219.508H157.24L157.225 219.57C156.975 220.773 155.998 221.562 154.646 221.562C152.865 221.562 151.764 220.062 151.764 217.641V217.625C151.764 215.203 152.865 213.711 154.639 213.711C155.982 213.711 156.99 214.57 157.232 215.836V215.891H159.529V215.797C159.311 213.414 157.311 211.711 154.639 211.711C151.365 211.711 149.35 213.969 149.35 217.625V217.641C149.35 221.297 151.373 223.562 154.639 223.562ZM166.639 223.562C169.967 223.562 172.061 221.281 172.061 217.641V217.625C172.061 213.984 169.959 211.711 166.639 211.711C163.318 211.711 161.209 213.977 161.209 217.625V217.641C161.209 221.281 163.287 223.562 166.639 223.562ZM166.639 221.562C164.779 221.562 163.615 220.023 163.615 217.641V217.625C163.615 215.234 164.803 213.711 166.639 213.711C168.467 213.711 169.654 215.234 169.654 217.625V217.641C169.654 220.023 168.475 221.562 166.639 221.562ZM174.303 223.273H176.404V215.602H176.561L179.451 223.273H180.928L183.818 215.602H183.975V223.273H186.076V212H183.373L180.264 220.25H180.123L177.006 212H174.303V223.273ZM188.818 223.273H191.178V219.719H193.467C195.842 219.719 197.428 218.188 197.428 215.867V215.852C197.428 213.531 195.842 212 193.467 212H188.818V223.273ZM192.889 213.867C194.24 213.867 195.037 214.578 195.037 215.859V215.875C195.037 217.156 194.24 217.875 192.889 217.875H191.178V213.867H192.889ZM199.6 223.273H206.975V221.328H201.959V212H199.6V223.273ZM209.115 223.273H216.584V221.328H211.475V218.477H216.295V216.664H211.475V213.945H216.584V212H209.115V223.273ZM221.803 223.273H224.162V213.945H227.545V212H218.42V213.945H221.803V223.273ZM229.631 223.273H237.1V221.328H231.99V218.477H236.811V216.664H231.99V213.945H237.1V212H229.631V223.273Z" fill="#191B25"/>
</svg>
