<svg width="18" height="18" viewBox="0 0 18 18" fill="none" xmlns="http://www.w3.org/2000/svg">
<path d="M12.9575 14.962C12.5421 14.5465 12.5421 13.8729 12.9575 13.4575C13.373 13.042 14.0466 13.042 14.462 13.4575L17.1885 16.1839C17.6039 16.5994 17.6039 17.273 17.1885 17.6884C16.773 18.1039 16.0995 18.1039 15.684 17.6884L12.9575 14.962Z" fill="white"/>
<path fill-rule="evenodd" clip-rule="evenodd" d="M2.2266 8.48938C2.2266 11.6721 4.80672 14.2522 7.98947 14.2522C11.1722 14.2522 13.7523 11.6721 13.7523 8.48938C13.7523 5.30663 11.1722 2.72651 7.98947 2.72651C4.80672 2.72651 2.2266 5.30663 2.2266 8.48938ZM7.98947 0.533112C3.59534 0.533112 0.0332031 4.09525 0.0332031 8.48938C0.0332031 12.8835 3.59534 16.4456 7.98947 16.4456C12.3836 16.4456 15.9457 12.8835 15.9457 8.48938C15.9457 4.09525 12.3836 0.533112 7.98947 0.533112Z" fill="white"/>
</svg>
