<svg width="30" height="29" viewBox="0 0 30 29" fill="none" xmlns="http://www.w3.org/2000/svg">
<rect x="7.08984" y="5.53799" width="15.8229" height="17.5779" fill="white"/>
<path d="M15.0006 0.0919342C7.1429 0.0919342 0.765625 6.46921 0.765625 14.3269C0.765625 22.1847 7.1429 28.5619 15.0006 28.5619C22.8583 28.5619 29.2356 22.1847 29.2356 14.3269C29.2356 6.46921 22.8583 0.0919342 15.0006 0.0919342ZM15.0006 15.7504C14.2177 15.7504 13.5771 15.1099 13.5771 14.3269V8.63293C13.5771 7.85001 14.2177 7.20943 15.0006 7.20943C15.7835 7.20943 16.4241 7.85001 16.4241 8.63293V14.3269C16.4241 15.1099 15.7835 15.7504 15.0006 15.7504ZM16.4241 21.4444H13.5771V18.5974H16.4241V21.4444Z" fill="#FF9900"/>
</svg>
